M48
; DRILL file {KiCad 7.0.8} date Mon Aug 19 13:22:44 2024
; FORMAT={-:-/ absolute / inch / decimal}
; #@! TF.CreationDate,2024-08-19T13:22:44+09:00
; #@! TF.GenerationSoftware,Kicad,Pcbnew,7.0.8
; #@! TF.FileFunction,Plated,1,2,PTH
FMAT,2
INCH
; #@! TA.AperFunction,Plated,PTH,ViaDrill
T1C0.0157
; #@! TA.AperFunction,Plated,PTH,ComponentDrill
T2C0.0315
; #@! TA.AperFunction,Plated,PTH,ComponentDrill
T3C0.0354
; #@! TA.AperFunction,Plated,PTH,ComponentDrill
T4C0.0394
; #@! TA.AperFunction,Plated,PTH,ComponentDrill
T5C0.0472
; #@! TA.AperFunction,Plated,PTH,ComponentDrill
T6C0.0598
%
G90
G05
T1
X4.9213Y-1.063
X4.9213Y-3.0709
X4.9409Y-2.0276
X5.1575Y-0.8268
X5.1575Y-3.2874
X5.1969Y-1.0039
X5.2165Y-1.378
X5.2756Y-2.874
X5.3346Y-2.5984
X5.5315Y-2.4606
X5.7283Y-1.3583
X5.748Y-1.8898
X5.748Y-2.1457
X5.7677Y-1.6142
X5.8465Y-3.0709
X5.8661Y-3.2283
X5.9449Y-1.6142
X6.1024Y-2.5394
X6.1811Y-1.3976
X6.2598Y-0.8465
X6.3386Y-1.0827
X6.3386Y-2.4016
X6.4173Y-1.2598
X6.4567Y-1.8307
X6.4764Y-2.9528
X6.7717Y-0.8268
X6.7717Y-3.2874
X6.8504Y-1.2402
X6.8701Y-2.5591
X6.9094Y-1.5157
X6.9882Y-1.063
X6.9882Y-2.2441
X6.9882Y-3.0709
T2
X5.4594Y-1.5692
X5.4594Y-1.6676
X5.46Y-2.709
X5.46Y-2.8074
X5.4909Y-1.9902
X5.4916Y-3.13
X5.5894Y-1.9902
X5.59Y-3.13
X5.71Y-1.47
X5.71Y-1.77
X5.71Y-2.61
X5.71Y-2.91
X5.8094Y-1.2402
X5.81Y-1.47
X5.81Y-1.77
X5.81Y-2.61
X5.81Y-2.91
X5.8126Y-2.38
X5.8411Y-0.97
X5.9078Y-1.2402
X5.91Y-1.47
X5.91Y-1.77
X5.91Y-2.61
X5.91Y-2.91
X5.911Y-2.38
X5.9411Y-0.97
X6.01Y-1.47
X6.01Y-1.77
X6.01Y-2.61
X6.01Y-2.91
X6.0109Y-1.9102
X6.0116Y-3.05
X6.0694Y-2.0602
X6.07Y-3.2
X6.0809Y-1.2402
X6.0826Y-2.38
X6.1694Y-1.5733
X6.1694Y-1.7702
X6.17Y-2.7131
X6.17Y-2.91
X6.1794Y-1.2402
X6.181Y-2.38
X6.2078Y-1.9102
X6.2084Y-3.05
X6.3394Y-1.4702
X6.3394Y-1.8702
X6.34Y-2.61
X6.34Y-3.01
X6.4694Y-2.0602
X6.47Y-3.2
X6.5909Y-1.4702
X6.5945Y-2.4409
X6.6894Y-1.4702
X6.6929Y-2.4409
T3
X6.08Y-0.97
X6.18Y-0.97
T4
X5.0789Y-2.2449
X5.0789Y-2.3433
X5.0789Y-2.4417
X5.1774Y-2.2449
X5.1774Y-2.3433
X5.1774Y-2.4417
X6.5208Y-0.9693
X6.6192Y-0.9693
T5
X5.3822Y-0.9397
X5.4078Y-1.235
X5.585Y-1.235
X5.6106Y-0.9397
T6
X6.6894Y-1.8202
X6.6894Y-2.0202
X6.69Y-2.755
X6.69Y-2.955
T0
M30
