%TF.GenerationSoftware,KiCad,Pcbnew,7.0.8*%
%TF.CreationDate,2024-08-19T13:22:41+09:00*%
%TF.ProjectId,lm386_stereo_amp,6c6d3338-365f-4737-9465-72656f5f616d,rev?*%
%TF.SameCoordinates,Original*%
%TF.FileFunction,Copper,L2,Bot*%
%TF.FilePolarity,Positive*%
%FSLAX46Y46*%
G04 Gerber Fmt 4.6, Leading zero omitted, Abs format (unit mm)*
G04 Created by KiCad (PCBNEW 7.0.8) date 2024-08-19 13:22:41*
%MOMM*%
%LPD*%
G01*
G04 APERTURE LIST*
G04 Aperture macros list*
%AMRoundRect*
0 Rectangle with rounded corners*
0 $1 Rounding radius*
0 $2 $3 $4 $5 $6 $7 $8 $9 X,Y pos of 4 corners*
0 Add a 4 corners polygon primitive as box body*
4,1,4,$2,$3,$4,$5,$6,$7,$8,$9,$2,$3,0*
0 Add four circle primitives for the rounded corners*
1,1,$1+$1,$2,$3*
1,1,$1+$1,$4,$5*
1,1,$1+$1,$6,$7*
1,1,$1+$1,$8,$9*
0 Add four rect primitives between the rounded corners*
20,1,$1+$1,$2,$3,$4,$5,0*
20,1,$1+$1,$4,$5,$6,$7,0*
20,1,$1+$1,$6,$7,$8,$9,0*
20,1,$1+$1,$8,$9,$2,$3,0*%
G04 Aperture macros list end*
%TA.AperFunction,ComponentPad*%
%ADD10RoundRect,0.450000X0.450000X0.450000X-0.450000X0.450000X-0.450000X-0.450000X0.450000X-0.450000X0*%
%TD*%
%TA.AperFunction,ComponentPad*%
%ADD11C,1.800000*%
%TD*%
%TA.AperFunction,ComponentPad*%
%ADD12R,1.600000X1.600000*%
%TD*%
%TA.AperFunction,ComponentPad*%
%ADD13C,1.600000*%
%TD*%
%TA.AperFunction,ComponentPad*%
%ADD14R,1.800000X1.800000*%
%TD*%
%TA.AperFunction,ComponentPad*%
%ADD15RoundRect,0.250000X-0.600000X-0.750000X0.600000X-0.750000X0.600000X0.750000X-0.600000X0.750000X0*%
%TD*%
%TA.AperFunction,ComponentPad*%
%ADD16O,1.700000X2.000000*%
%TD*%
%TA.AperFunction,ComponentPad*%
%ADD17R,3.000000X3.000000*%
%TD*%
%TA.AperFunction,ComponentPad*%
%ADD18C,3.000000*%
%TD*%
%TA.AperFunction,ComponentPad*%
%ADD19O,1.600000X1.600000*%
%TD*%
%TA.AperFunction,ComponentPad*%
%ADD20R,1.900000X1.900000*%
%TD*%
%TA.AperFunction,ComponentPad*%
%ADD21C,1.900000*%
%TD*%
%TA.AperFunction,ViaPad*%
%ADD22C,0.800000*%
%TD*%
%TA.AperFunction,Conductor*%
%ADD23C,0.800000*%
%TD*%
G04 APERTURE END LIST*
D10*
%TO.P,RV1,1,1*%
%TO.N,GND*%
X129005000Y-57020000D03*
D11*
%TO.P,RV1,2,2*%
%TO.N,Net-(C8-Pad2)*%
X129005000Y-59520000D03*
%TO.P,RV1,3,3*%
%TO.N,Net-(J2-PadR)*%
X129005000Y-62020000D03*
%TO.P,RV1,4,4*%
%TO.N,GND*%
X131505000Y-57020000D03*
%TO.P,RV1,5,5*%
%TO.N,Net-(C1-Pad2)*%
X131505000Y-59520000D03*
%TO.P,RV1,6,6*%
%TO.N,Net-(J2-PadT)*%
X131505000Y-62020000D03*
%TD*%
D12*
%TO.P,C9,1*%
%TO.N,Net-(U2-BYPASS)*%
X147638888Y-60452000D03*
D13*
%TO.P,C9,2*%
%TO.N,GND*%
X150138888Y-60452000D03*
%TD*%
%TO.P,C6,1*%
%TO.N,Net-(C6-Pad1)*%
X157678000Y-48518000D03*
%TO.P,C6,2*%
%TO.N,GND*%
X152678000Y-48518000D03*
%TD*%
%TO.P,C2,1*%
%TO.N,+9V*%
X156702000Y-39962000D03*
%TO.P,C2,2*%
%TO.N,GND*%
X156702000Y-44962000D03*
%TD*%
D12*
%TO.P,C3,1*%
%TO.N,+9V*%
X154456000Y-31500000D03*
D13*
%TO.P,C3,2*%
%TO.N,GND*%
X156956000Y-31500000D03*
%TD*%
D14*
%TO.P,D1,1,K*%
%TO.N,Net-(D1-K)*%
X154432000Y-24638000D03*
D11*
%TO.P,D1,2,A*%
%TO.N,+9V*%
X156972000Y-24638000D03*
%TD*%
D15*
%TO.P,J1,1,Pin_1*%
%TO.N,+9V*%
X165628000Y-24621000D03*
D16*
%TO.P,J1,2,Pin_2*%
%TO.N,GND*%
X168128000Y-24621000D03*
%TD*%
D17*
%TO.P,J4,1,Pin_1*%
%TO.N,GND*%
X169926000Y-75057000D03*
D18*
%TO.P,J4,2,Pin_2*%
%TO.N,Net-(J4-Pin_2)*%
X169926000Y-69977000D03*
%TD*%
D13*
%TO.P,C1,1*%
%TO.N,Net-(U1-+)*%
X141970000Y-50550000D03*
%TO.P,C1,2*%
%TO.N,Net-(C1-Pad2)*%
X139470000Y-50550000D03*
%TD*%
D12*
%TO.P,U2,1,GAIN*%
%TO.N,Net-(C10-Pad1)*%
X145034000Y-73914000D03*
D19*
%TO.P,U2,2,-*%
%TO.N,GND*%
X147574000Y-73914000D03*
%TO.P,U2,3,+*%
%TO.N,Net-(U2-+)*%
X150114000Y-73914000D03*
%TO.P,U2,4,GND*%
%TO.N,GND*%
X152654000Y-73914000D03*
%TO.P,U2,5*%
%TO.N,Net-(C12-Pad1)*%
X152654000Y-66294000D03*
%TO.P,U2,6,V+*%
%TO.N,+9V*%
X150114000Y-66294000D03*
%TO.P,U2,7,BYPASS*%
%TO.N,Net-(U2-BYPASS)*%
X147574000Y-66294000D03*
%TO.P,U2,8,GAIN*%
%TO.N,Net-(C10-Pad2)*%
X145034000Y-66294000D03*
%TD*%
D20*
%TO.P,J2,R*%
%TO.N,Net-(J2-PadR)*%
X141859000Y-31369000D03*
D21*
%TO.P,J2,S*%
%TO.N,GND*%
X137359000Y-31369000D03*
%TO.P,J2,T*%
%TO.N,Net-(J2-PadT)*%
X142509000Y-23869000D03*
X136709000Y-23869000D03*
%TD*%
D12*
%TO.P,C10,1*%
%TO.N,Net-(C10-Pad1)*%
X138684000Y-71309113D03*
D13*
%TO.P,C10,2*%
%TO.N,Net-(C10-Pad2)*%
X138684000Y-68809113D03*
%TD*%
D12*
%TO.P,C7,1*%
%TO.N,Net-(C7-Pad1)*%
X167410000Y-37342000D03*
D13*
%TO.P,C7,2*%
%TO.N,Net-(J3-Pin_2)*%
X169910000Y-37342000D03*
%TD*%
%TO.P,R4,1*%
%TO.N,Net-(U2-+)*%
X154178000Y-81280000D03*
D19*
%TO.P,R4,2*%
%TO.N,GND*%
X164338000Y-81280000D03*
%TD*%
D12*
%TO.P,C4,1*%
%TO.N,Net-(U1-BYPASS)*%
X147558000Y-31500000D03*
D13*
%TO.P,C4,2*%
%TO.N,GND*%
X150058000Y-31500000D03*
%TD*%
D12*
%TO.P,U1,1,GAIN*%
%TO.N,Net-(C5-Pad1)*%
X145034000Y-44958000D03*
D19*
%TO.P,U1,2,-*%
%TO.N,GND*%
X147574000Y-44958000D03*
%TO.P,U1,3,+*%
%TO.N,Net-(U1-+)*%
X150114000Y-44958000D03*
%TO.P,U1,4,GND*%
%TO.N,GND*%
X152654000Y-44958000D03*
%TO.P,U1,5*%
%TO.N,Net-(C7-Pad1)*%
X152654000Y-37338000D03*
%TO.P,U1,6,V+*%
%TO.N,+9V*%
X150114000Y-37338000D03*
%TO.P,U1,7,BYPASS*%
%TO.N,Net-(U1-BYPASS)*%
X147574000Y-37338000D03*
%TO.P,U1,8,GAIN*%
%TO.N,Net-(C5-Pad2)*%
X145034000Y-37338000D03*
%TD*%
D13*
%TO.P,C8,1*%
%TO.N,Net-(U2-+)*%
X141986000Y-79502000D03*
%TO.P,C8,2*%
%TO.N,Net-(C8-Pad2)*%
X139486000Y-79502000D03*
%TD*%
%TO.P,C11,1*%
%TO.N,Net-(C11-Pad1)*%
X157694000Y-77470000D03*
%TO.P,C11,2*%
%TO.N,GND*%
X152694000Y-77470000D03*
%TD*%
%TO.P,R5,1*%
%TO.N,Net-(C11-Pad1)*%
X161036000Y-76454000D03*
D19*
%TO.P,R5,2*%
%TO.N,Net-(C12-Pad1)*%
X161036000Y-66294000D03*
%TD*%
D17*
%TO.P,J3,1,Pin_1*%
%TO.N,GND*%
X169910000Y-51312000D03*
D18*
%TO.P,J3,2,Pin_2*%
%TO.N,Net-(J3-Pin_2)*%
X169910000Y-46232000D03*
%TD*%
D12*
%TO.P,C12,1*%
%TO.N,Net-(C12-Pad1)*%
X167500000Y-62000000D03*
D13*
%TO.P,C12,2*%
%TO.N,Net-(J4-Pin_2)*%
X170000000Y-62000000D03*
%TD*%
D19*
%TO.P,R2,2*%
%TO.N,GND*%
X148365000Y-24638000D03*
D13*
%TO.P,R2,1*%
%TO.N,Net-(D1-K)*%
X150905000Y-24638000D03*
%TD*%
D12*
%TO.P,C14,1*%
%TO.N,+9V*%
X154496888Y-60452000D03*
D13*
%TO.P,C14,2*%
%TO.N,GND*%
X156996888Y-60452000D03*
%TD*%
%TO.P,C13,1*%
%TO.N,+9V*%
X156718000Y-68914000D03*
%TO.P,C13,2*%
%TO.N,GND*%
X156718000Y-73914000D03*
%TD*%
%TO.P,R3,1*%
%TO.N,Net-(C6-Pad1)*%
X161020000Y-47502000D03*
D19*
%TO.P,R3,2*%
%TO.N,Net-(C7-Pad1)*%
X161020000Y-37342000D03*
%TD*%
D13*
%TO.P,R1,1*%
%TO.N,Net-(U1-+)*%
X154162000Y-52328000D03*
D19*
%TO.P,R1,2*%
%TO.N,GND*%
X164322000Y-52328000D03*
%TD*%
D12*
%TO.P,C5,1*%
%TO.N,Net-(C5-Pad1)*%
X138668000Y-42357113D03*
D13*
%TO.P,C5,2*%
%TO.N,Net-(C5-Pad2)*%
X138668000Y-39857113D03*
%TD*%
D22*
%TO.N,GND*%
X177500000Y-57000000D03*
X134000000Y-73000000D03*
X161000000Y-61000000D03*
X149000000Y-82000000D03*
X164500000Y-75000000D03*
X172000000Y-83500000D03*
X131000000Y-83500000D03*
X146500000Y-41000000D03*
X172000000Y-21000000D03*
X125000000Y-27000000D03*
X131000000Y-21000000D03*
X163000000Y-32000000D03*
X125500000Y-51500000D03*
X146000000Y-54500000D03*
X157000000Y-35500000D03*
X132000000Y-25500000D03*
X159000000Y-21500000D03*
X140500000Y-62500000D03*
X177500000Y-78000000D03*
X175500000Y-38500000D03*
X164000000Y-46500000D03*
X155000000Y-64500000D03*
X174500000Y-65000000D03*
X145500000Y-34500000D03*
X151000000Y-41000000D03*
X125000000Y-78000000D03*
X132500000Y-35000000D03*
X174000000Y-31500000D03*
X161000000Y-27500000D03*
X177500000Y-27000000D03*
X146000000Y-48000000D03*
X148500000Y-78000000D03*
X135500000Y-66000000D03*
%TD*%
D23*
%TO.N,+9V*%
X159258000Y-42518000D02*
X159258000Y-52324000D01*
X154496888Y-57085112D02*
X154496888Y-60452000D01*
X152738000Y-39962000D02*
X156702000Y-39962000D01*
X154456000Y-29694000D02*
X154456000Y-31500000D01*
X154496888Y-60452000D02*
X154496888Y-61911112D01*
X159258000Y-52324000D02*
X154496888Y-57085112D01*
X156702000Y-39962000D02*
X159258000Y-42518000D01*
X150114000Y-66294000D02*
X152734000Y-68914000D01*
X150114000Y-37338000D02*
X152738000Y-39962000D01*
X156972000Y-27178000D02*
X154456000Y-29694000D01*
X154496888Y-61911112D02*
X150114000Y-66294000D01*
X165648000Y-24638000D02*
X156972000Y-24638000D01*
X152734000Y-68914000D02*
X156718000Y-68914000D01*
X154456000Y-32996000D02*
X150114000Y-37338000D01*
X154456000Y-31500000D02*
X154456000Y-32996000D01*
X156972000Y-24638000D02*
X156972000Y-27178000D01*
%TO.N,Net-(D1-K)*%
X154432000Y-24638000D02*
X150905000Y-24638000D01*
%TO.N,Net-(J2-PadR)*%
X136017000Y-61214000D02*
X136017000Y-37211000D01*
X136017000Y-37211000D02*
X141859000Y-31369000D01*
X130739000Y-63754000D02*
X133477000Y-63754000D01*
X129005000Y-62020000D02*
X130739000Y-63754000D01*
X133477000Y-63754000D02*
X136017000Y-61214000D01*
%TO.N,Net-(J2-PadT)*%
X136709000Y-23869000D02*
X134620000Y-25958000D01*
X134620000Y-58905000D02*
X131505000Y-62020000D01*
X134620000Y-25958000D02*
X134620000Y-58905000D01*
%TD*%
%TA.AperFunction,Conductor*%
%TO.N,GND*%
G36*
X131045507Y-57229844D02*
G01*
X131123239Y-57350798D01*
X131231900Y-57444952D01*
X131362685Y-57504680D01*
X131372466Y-57506086D01*
X130706199Y-58172351D01*
X130706227Y-58172801D01*
X130746341Y-58228537D01*
X130750017Y-58298310D01*
X130715387Y-58358994D01*
X130705530Y-58367536D01*
X130553218Y-58486085D01*
X130553216Y-58486086D01*
X130553216Y-58486087D01*
X130477517Y-58568319D01*
X130396015Y-58656854D01*
X130358808Y-58713804D01*
X130305662Y-58759161D01*
X130236430Y-58768584D01*
X130173095Y-58739082D01*
X130151192Y-58713804D01*
X130113984Y-58656854D01*
X130113982Y-58656852D01*
X130113979Y-58656847D01*
X129956784Y-58486087D01*
X129950301Y-58481041D01*
X129909488Y-58424330D01*
X129905815Y-58354557D01*
X129940447Y-58293874D01*
X129969055Y-58273278D01*
X129980474Y-58267313D01*
X130130215Y-58145215D01*
X130252313Y-57995474D01*
X130327005Y-57852483D01*
X130349233Y-57822213D01*
X131021923Y-57149523D01*
X131045507Y-57229844D01*
G37*
%TD.AperFunction*%
%TA.AperFunction,Conductor*%
G36*
X176001619Y-20000584D02*
G01*
X176133628Y-20007503D01*
X176317027Y-20017803D01*
X176323212Y-20018465D01*
X176475647Y-20042608D01*
X176638194Y-20070226D01*
X176643811Y-20071453D01*
X176796693Y-20112418D01*
X176889122Y-20139046D01*
X176951724Y-20157082D01*
X176956759Y-20158769D01*
X177106183Y-20216127D01*
X177254007Y-20277358D01*
X177258412Y-20279388D01*
X177324180Y-20312899D01*
X177401921Y-20352511D01*
X177477428Y-20394241D01*
X177541480Y-20429641D01*
X177545215Y-20431882D01*
X177619487Y-20480115D01*
X177680872Y-20519980D01*
X177768357Y-20582053D01*
X177810764Y-20612142D01*
X177813886Y-20614510D01*
X177938748Y-20715621D01*
X177941034Y-20717567D01*
X178058721Y-20822738D01*
X178061248Y-20825128D01*
X178174870Y-20938750D01*
X178177260Y-20941277D01*
X178282431Y-21058964D01*
X178284385Y-21061260D01*
X178385480Y-21186102D01*
X178387862Y-21189243D01*
X178480019Y-21319127D01*
X178533758Y-21401875D01*
X178568106Y-21454767D01*
X178570364Y-21458531D01*
X178647488Y-21598078D01*
X178720604Y-21741575D01*
X178722643Y-21745997D01*
X178783877Y-21893829D01*
X178841221Y-22043217D01*
X178842916Y-22048273D01*
X178887579Y-22203297D01*
X178928541Y-22356171D01*
X178929778Y-22361835D01*
X178957394Y-22524369D01*
X178981530Y-22676758D01*
X178982196Y-22682985D01*
X178992509Y-22866617D01*
X178999415Y-22998377D01*
X178999500Y-23001623D01*
X178999500Y-81998376D01*
X178999415Y-82001622D01*
X178992509Y-82133382D01*
X178982196Y-82317013D01*
X178981530Y-82323240D01*
X178957394Y-82475630D01*
X178929778Y-82638163D01*
X178928541Y-82643827D01*
X178887579Y-82796702D01*
X178842916Y-82951725D01*
X178841221Y-82956781D01*
X178783877Y-83106170D01*
X178722643Y-83254001D01*
X178720604Y-83258423D01*
X178647488Y-83401921D01*
X178570364Y-83541467D01*
X178568097Y-83545246D01*
X178480019Y-83680872D01*
X178387862Y-83810755D01*
X178385480Y-83813896D01*
X178284385Y-83938738D01*
X178282431Y-83941034D01*
X178177260Y-84058721D01*
X178174870Y-84061248D01*
X178061248Y-84174870D01*
X178058721Y-84177260D01*
X177941034Y-84282431D01*
X177938738Y-84284385D01*
X177813896Y-84385480D01*
X177810755Y-84387862D01*
X177680872Y-84480019D01*
X177545246Y-84568097D01*
X177541467Y-84570364D01*
X177401921Y-84647488D01*
X177258423Y-84720604D01*
X177254001Y-84722643D01*
X177106170Y-84783877D01*
X176956781Y-84841221D01*
X176951725Y-84842916D01*
X176796702Y-84887579D01*
X176643827Y-84928541D01*
X176638163Y-84929778D01*
X176475630Y-84957394D01*
X176323240Y-84981530D01*
X176317013Y-84982196D01*
X176133382Y-84992509D01*
X176001622Y-84999415D01*
X175998376Y-84999500D01*
X127001624Y-84999500D01*
X126998378Y-84999415D01*
X126866617Y-84992509D01*
X126682985Y-84982196D01*
X126676758Y-84981530D01*
X126524369Y-84957394D01*
X126361835Y-84929778D01*
X126356171Y-84928541D01*
X126203297Y-84887579D01*
X126048273Y-84842916D01*
X126043217Y-84841221D01*
X125893829Y-84783877D01*
X125745997Y-84722643D01*
X125741575Y-84720604D01*
X125598078Y-84647488D01*
X125458531Y-84570364D01*
X125454767Y-84568106D01*
X125401875Y-84533758D01*
X125319127Y-84480019D01*
X125189243Y-84387862D01*
X125186102Y-84385480D01*
X125061260Y-84284385D01*
X125058964Y-84282431D01*
X124941277Y-84177260D01*
X124938750Y-84174870D01*
X124825128Y-84061248D01*
X124822738Y-84058721D01*
X124717567Y-83941034D01*
X124715613Y-83938738D01*
X124676848Y-83890867D01*
X124614510Y-83813886D01*
X124612136Y-83810755D01*
X124519980Y-83680872D01*
X124479177Y-83618042D01*
X124431882Y-83545215D01*
X124429641Y-83541480D01*
X124389352Y-83468581D01*
X124352511Y-83401921D01*
X124312899Y-83324180D01*
X124279388Y-83258412D01*
X124277358Y-83254007D01*
X124216122Y-83106170D01*
X124158769Y-82956759D01*
X124157082Y-82951724D01*
X124112420Y-82796702D01*
X124107316Y-82777652D01*
X124071453Y-82643811D01*
X124070226Y-82638194D01*
X124042601Y-82475606D01*
X124018465Y-82323212D01*
X124017803Y-82317027D01*
X124007490Y-82133382D01*
X124004051Y-82067763D01*
X125145787Y-82067763D01*
X125175413Y-82337013D01*
X125175415Y-82337024D01*
X125235182Y-82565635D01*
X125243928Y-82599088D01*
X125349870Y-82848390D01*
X125416021Y-82956782D01*
X125490979Y-83079605D01*
X125490986Y-83079615D01*
X125664253Y-83287819D01*
X125664259Y-83287824D01*
X125865998Y-83468582D01*
X126091910Y-83618044D01*
X126337176Y-83733020D01*
X126337183Y-83733022D01*
X126337185Y-83733023D01*
X126596557Y-83811057D01*
X126596564Y-83811058D01*
X126596569Y-83811060D01*
X126864561Y-83850500D01*
X126864566Y-83850500D01*
X127067636Y-83850500D01*
X127119133Y-83846730D01*
X127270156Y-83835677D01*
X127382758Y-83810593D01*
X127534546Y-83776782D01*
X127534548Y-83776781D01*
X127534553Y-83776780D01*
X127787558Y-83680014D01*
X128023777Y-83547441D01*
X128238177Y-83381888D01*
X128426186Y-83186881D01*
X128583799Y-82966579D01*
X128680933Y-82777652D01*
X128707649Y-82725690D01*
X128707651Y-82725684D01*
X128707656Y-82725675D01*
X128795118Y-82469305D01*
X128844319Y-82202933D01*
X128854212Y-81932235D01*
X128824586Y-81662982D01*
X128756072Y-81400912D01*
X128704690Y-81280001D01*
X152872532Y-81280001D01*
X152892364Y-81506686D01*
X152892366Y-81506697D01*
X152951258Y-81726488D01*
X152951261Y-81726497D01*
X153047431Y-81932732D01*
X153047432Y-81932734D01*
X153177954Y-82119141D01*
X153338858Y-82280045D01*
X153338861Y-82280047D01*
X153525266Y-82410568D01*
X153731504Y-82506739D01*
X153951308Y-82565635D01*
X154113230Y-82579801D01*
X154177998Y-82585468D01*
X154178000Y-82585468D01*
X154178002Y-82585468D01*
X154234673Y-82580509D01*
X154404692Y-82565635D01*
X154624496Y-82506739D01*
X154830734Y-82410568D01*
X155017139Y-82280047D01*
X155178047Y-82119139D01*
X155308568Y-81932734D01*
X155404739Y-81726496D01*
X155463635Y-81506692D01*
X155483468Y-81280000D01*
X155463635Y-81053308D01*
X155457389Y-81029999D01*
X163059127Y-81029999D01*
X163059128Y-81030000D01*
X164022314Y-81030000D01*
X164010359Y-81041955D01*
X163952835Y-81154852D01*
X163933014Y-81280000D01*
X163952835Y-81405148D01*
X164010359Y-81518045D01*
X164022314Y-81530000D01*
X163059128Y-81530000D01*
X163111730Y-81726317D01*
X163111734Y-81726326D01*
X163207865Y-81932482D01*
X163338342Y-82118820D01*
X163499179Y-82279657D01*
X163685517Y-82410134D01*
X163891673Y-82506265D01*
X163891682Y-82506269D01*
X164087999Y-82558872D01*
X164088000Y-82558871D01*
X164088000Y-81595686D01*
X164099955Y-81607641D01*
X164212852Y-81665165D01*
X164306519Y-81680000D01*
X164369481Y-81680000D01*
X164463148Y-81665165D01*
X164576045Y-81607641D01*
X164588000Y-81595686D01*
X164588000Y-82558872D01*
X164784317Y-82506269D01*
X164784326Y-82506265D01*
X164990482Y-82410134D01*
X165176820Y-82279657D01*
X165337657Y-82118820D01*
X165373408Y-82067763D01*
X174145787Y-82067763D01*
X174175413Y-82337013D01*
X174175415Y-82337024D01*
X174235182Y-82565635D01*
X174243928Y-82599088D01*
X174349870Y-82848390D01*
X174416021Y-82956782D01*
X174490979Y-83079605D01*
X174490986Y-83079615D01*
X174664253Y-83287819D01*
X174664259Y-83287824D01*
X174865998Y-83468582D01*
X175091910Y-83618044D01*
X175337176Y-83733020D01*
X175337183Y-83733022D01*
X175337185Y-83733023D01*
X175596557Y-83811057D01*
X175596564Y-83811058D01*
X175596569Y-83811060D01*
X175864561Y-83850500D01*
X175864566Y-83850500D01*
X176067636Y-83850500D01*
X176119133Y-83846730D01*
X176270156Y-83835677D01*
X176382758Y-83810593D01*
X176534546Y-83776782D01*
X176534548Y-83776781D01*
X176534553Y-83776780D01*
X176787558Y-83680014D01*
X177023777Y-83547441D01*
X177238177Y-83381888D01*
X177426186Y-83186881D01*
X177583799Y-82966579D01*
X177680933Y-82777652D01*
X177707649Y-82725690D01*
X177707651Y-82725684D01*
X177707656Y-82725675D01*
X177795118Y-82469305D01*
X177844319Y-82202933D01*
X177854212Y-81932235D01*
X177824586Y-81662982D01*
X177756072Y-81400912D01*
X177650130Y-81151610D01*
X177509018Y-80920390D01*
X177487751Y-80894835D01*
X177335746Y-80712180D01*
X177335740Y-80712175D01*
X177134002Y-80531418D01*
X176908092Y-80381957D01*
X176908090Y-80381956D01*
X176662824Y-80266980D01*
X176662819Y-80266978D01*
X176662814Y-80266976D01*
X176403442Y-80188942D01*
X176403428Y-80188939D01*
X176287791Y-80171921D01*
X176135439Y-80149500D01*
X175932369Y-80149500D01*
X175932364Y-80149500D01*
X175729844Y-80164323D01*
X175729831Y-80164325D01*
X175465453Y-80223217D01*
X175465446Y-80223220D01*
X175212439Y-80319987D01*
X174976226Y-80452557D01*
X174761822Y-80618112D01*
X174573822Y-80813109D01*
X174573816Y-80813116D01*
X174416202Y-81033419D01*
X174416199Y-81033424D01*
X174292350Y-81274309D01*
X174292343Y-81274327D01*
X174204884Y-81530685D01*
X174204882Y-81530695D01*
X174168718Y-81726488D01*
X174155681Y-81797068D01*
X174155680Y-81797075D01*
X174145787Y-82067763D01*
X165373408Y-82067763D01*
X165468134Y-81932482D01*
X165564265Y-81726326D01*
X165564269Y-81726317D01*
X165616872Y-81530000D01*
X164653686Y-81530000D01*
X164665641Y-81518045D01*
X164723165Y-81405148D01*
X164742986Y-81280000D01*
X164723165Y-81154852D01*
X164665641Y-81041955D01*
X164653686Y-81030000D01*
X165616872Y-81030000D01*
X165616872Y-81029999D01*
X165564269Y-80833682D01*
X165564265Y-80833673D01*
X165468134Y-80627517D01*
X165337657Y-80441179D01*
X165176820Y-80280342D01*
X164990482Y-80149865D01*
X164784328Y-80053734D01*
X164588000Y-80001127D01*
X164588000Y-80964314D01*
X164576045Y-80952359D01*
X164463148Y-80894835D01*
X164369481Y-80880000D01*
X164306519Y-80880000D01*
X164212852Y-80894835D01*
X164099955Y-80952359D01*
X164088000Y-80964314D01*
X164088000Y-80001127D01*
X163891671Y-80053734D01*
X163685517Y-80149865D01*
X163499179Y-80280342D01*
X163338342Y-80441179D01*
X163207865Y-80627517D01*
X163111734Y-80833673D01*
X163111730Y-80833682D01*
X163059127Y-81029999D01*
X155457389Y-81029999D01*
X155404739Y-80833504D01*
X155308568Y-80627266D01*
X155178047Y-80440861D01*
X155178045Y-80440858D01*
X155017141Y-80279954D01*
X154830734Y-80149432D01*
X154830732Y-80149431D01*
X154624497Y-80053261D01*
X154624488Y-80053258D01*
X154404697Y-79994366D01*
X154404693Y-79994365D01*
X154404692Y-79994365D01*
X154404691Y-79994364D01*
X154404686Y-79994364D01*
X154178002Y-79974532D01*
X154177998Y-79974532D01*
X153951313Y-79994364D01*
X153951302Y-79994366D01*
X153731511Y-80053258D01*
X153731502Y-80053261D01*
X153525267Y-80149431D01*
X153525265Y-80149432D01*
X153338858Y-80279954D01*
X153177954Y-80440858D01*
X153047432Y-80627265D01*
X153047431Y-80627267D01*
X152951261Y-80833502D01*
X152951258Y-80833511D01*
X152892366Y-81053302D01*
X152892364Y-81053313D01*
X152872532Y-81279998D01*
X152872532Y-81280001D01*
X128704690Y-81280001D01*
X128650130Y-81151610D01*
X128509018Y-80920390D01*
X128487751Y-80894835D01*
X128335746Y-80712180D01*
X128335740Y-80712175D01*
X128134002Y-80531418D01*
X127908092Y-80381957D01*
X127908090Y-80381956D01*
X127662824Y-80266980D01*
X127662819Y-80266978D01*
X127662814Y-80266976D01*
X127403442Y-80188942D01*
X127403428Y-80188939D01*
X127287791Y-80171921D01*
X127135439Y-80149500D01*
X126932369Y-80149500D01*
X126932364Y-80149500D01*
X126729844Y-80164323D01*
X126729831Y-80164325D01*
X126465453Y-80223217D01*
X126465446Y-80223220D01*
X126212439Y-80319987D01*
X125976226Y-80452557D01*
X125761822Y-80618112D01*
X125573822Y-80813109D01*
X125573816Y-80813116D01*
X125416202Y-81033419D01*
X125416199Y-81033424D01*
X125292350Y-81274309D01*
X125292343Y-81274327D01*
X125204884Y-81530685D01*
X125204882Y-81530695D01*
X125168718Y-81726488D01*
X125155681Y-81797068D01*
X125155680Y-81797075D01*
X125145787Y-82067763D01*
X124004051Y-82067763D01*
X124000584Y-82001620D01*
X124000500Y-81998377D01*
X124000500Y-79502001D01*
X138180532Y-79502001D01*
X138200364Y-79728686D01*
X138200366Y-79728697D01*
X138259258Y-79948488D01*
X138259261Y-79948497D01*
X138355431Y-80154732D01*
X138355432Y-80154734D01*
X138485954Y-80341141D01*
X138646858Y-80502045D01*
X138646861Y-80502047D01*
X138833266Y-80632568D01*
X139039504Y-80728739D01*
X139259308Y-80787635D01*
X139421230Y-80801801D01*
X139485998Y-80807468D01*
X139486000Y-80807468D01*
X139486002Y-80807468D01*
X139542673Y-80802509D01*
X139712692Y-80787635D01*
X139932496Y-80728739D01*
X140138734Y-80632568D01*
X140325139Y-80502047D01*
X140486047Y-80341139D01*
X140616568Y-80154734D01*
X140623618Y-80139614D01*
X140669789Y-80087176D01*
X140736982Y-80068023D01*
X140803864Y-80088238D01*
X140848381Y-80139614D01*
X140855432Y-80154733D01*
X140855432Y-80154734D01*
X140985954Y-80341141D01*
X141146858Y-80502045D01*
X141146861Y-80502047D01*
X141333266Y-80632568D01*
X141539504Y-80728739D01*
X141759308Y-80787635D01*
X141921230Y-80801801D01*
X141985998Y-80807468D01*
X141986000Y-80807468D01*
X141986002Y-80807468D01*
X142042673Y-80802509D01*
X142212692Y-80787635D01*
X142432496Y-80728739D01*
X142638734Y-80632568D01*
X142825139Y-80502047D01*
X142986047Y-80341139D01*
X143116568Y-80154734D01*
X143212739Y-79948496D01*
X143271635Y-79728692D01*
X143291468Y-79502000D01*
X143271635Y-79275308D01*
X143212739Y-79055504D01*
X143116568Y-78849266D01*
X142986047Y-78662861D01*
X142986045Y-78662858D01*
X142825141Y-78501954D01*
X142638734Y-78371432D01*
X142638732Y-78371431D01*
X142432497Y-78275261D01*
X142432488Y-78275258D01*
X142212697Y-78216366D01*
X142212693Y-78216365D01*
X142212692Y-78216365D01*
X142212691Y-78216364D01*
X142212686Y-78216364D01*
X141986002Y-78196532D01*
X141985998Y-78196532D01*
X141759313Y-78216364D01*
X141759302Y-78216366D01*
X141539511Y-78275258D01*
X141539502Y-78275261D01*
X141333267Y-78371431D01*
X141333265Y-78371432D01*
X141146858Y-78501954D01*
X140985954Y-78662858D01*
X140907105Y-78775468D01*
X140855432Y-78849266D01*
X140848380Y-78864387D01*
X140802209Y-78916825D01*
X140735015Y-78935976D01*
X140668134Y-78915760D01*
X140623619Y-78864387D01*
X140616568Y-78849266D01*
X140486047Y-78662861D01*
X140486045Y-78662858D01*
X140325141Y-78501954D01*
X140138734Y-78371432D01*
X140138732Y-78371431D01*
X139932497Y-78275261D01*
X139932488Y-78275258D01*
X139712697Y-78216366D01*
X139712693Y-78216365D01*
X139712692Y-78216365D01*
X139712691Y-78216364D01*
X139712686Y-78216364D01*
X139486002Y-78196532D01*
X139485998Y-78196532D01*
X139259313Y-78216364D01*
X139259302Y-78216366D01*
X139039511Y-78275258D01*
X139039502Y-78275261D01*
X138833267Y-78371431D01*
X138833265Y-78371432D01*
X138646858Y-78501954D01*
X138485954Y-78662858D01*
X138355432Y-78849265D01*
X138355431Y-78849267D01*
X138259261Y-79055502D01*
X138259258Y-79055511D01*
X138200366Y-79275302D01*
X138200364Y-79275313D01*
X138180532Y-79501998D01*
X138180532Y-79502001D01*
X124000500Y-79502001D01*
X124000500Y-77470002D01*
X151389034Y-77470002D01*
X151408858Y-77696599D01*
X151408860Y-77696610D01*
X151467730Y-77916317D01*
X151467734Y-77916326D01*
X151563865Y-78122481D01*
X151563866Y-78122483D01*
X151614973Y-78195471D01*
X151614974Y-78195472D01*
X152296046Y-77514399D01*
X152308835Y-77595148D01*
X152366359Y-77708045D01*
X152455955Y-77797641D01*
X152568852Y-77855165D01*
X152649599Y-77867953D01*
X151968526Y-78549025D01*
X151968526Y-78549026D01*
X152041512Y-78600131D01*
X152041516Y-78600133D01*
X152247673Y-78696265D01*
X152247682Y-78696269D01*
X152467389Y-78755139D01*
X152467400Y-78755141D01*
X152693998Y-78774966D01*
X152694002Y-78774966D01*
X152920599Y-78755141D01*
X152920610Y-78755139D01*
X153140317Y-78696269D01*
X153140331Y-78696264D01*
X153346478Y-78600136D01*
X153419472Y-78549025D01*
X152738401Y-77867953D01*
X152819148Y-77855165D01*
X152932045Y-77797641D01*
X153021641Y-77708045D01*
X153079165Y-77595148D01*
X153091953Y-77514400D01*
X153773025Y-78195472D01*
X153824136Y-78122478D01*
X153920264Y-77916331D01*
X153920269Y-77916317D01*
X153979139Y-77696610D01*
X153979141Y-77696599D01*
X153998966Y-77470002D01*
X153998966Y-77470001D01*
X156388532Y-77470001D01*
X156408364Y-77696686D01*
X156408366Y-77696697D01*
X156467258Y-77916488D01*
X156467261Y-77916497D01*
X156563431Y-78122732D01*
X156563432Y-78122734D01*
X156693954Y-78309141D01*
X156854858Y-78470045D01*
X156854861Y-78470047D01*
X157041266Y-78600568D01*
X157247504Y-78696739D01*
X157467308Y-78755635D01*
X157629230Y-78769801D01*
X157693998Y-78775468D01*
X157694000Y-78775468D01*
X157694002Y-78775468D01*
X157750673Y-78770509D01*
X157920692Y-78755635D01*
X158140496Y-78696739D01*
X158346734Y-78600568D01*
X158533139Y-78470047D01*
X158694047Y-78309139D01*
X158824568Y-78122734D01*
X158920739Y-77916496D01*
X158979635Y-77696692D01*
X158999468Y-77470000D01*
X158979635Y-77243308D01*
X158920739Y-77023504D01*
X158824568Y-76817266D01*
X158694047Y-76630861D01*
X158694045Y-76630858D01*
X158533141Y-76469954D01*
X158510357Y-76454001D01*
X159730532Y-76454001D01*
X159750364Y-76680686D01*
X159750366Y-76680697D01*
X159809258Y-76900488D01*
X159809261Y-76900497D01*
X159905431Y-77106732D01*
X159905432Y-77106734D01*
X160035954Y-77293141D01*
X160196858Y-77454045D01*
X160196861Y-77454047D01*
X160383266Y-77584568D01*
X160589504Y-77680739D01*
X160809308Y-77739635D01*
X160971230Y-77753801D01*
X161035998Y-77759468D01*
X161036000Y-77759468D01*
X161036002Y-77759468D01*
X161092673Y-77754509D01*
X161262692Y-77739635D01*
X161482496Y-77680739D01*
X161688734Y-77584568D01*
X161875139Y-77454047D01*
X162036047Y-77293139D01*
X162166568Y-77106734D01*
X162262739Y-76900496D01*
X162321635Y-76680692D01*
X162328271Y-76604844D01*
X167926000Y-76604844D01*
X167932401Y-76664372D01*
X167932403Y-76664379D01*
X167982645Y-76799086D01*
X167982649Y-76799093D01*
X168068809Y-76914187D01*
X168068812Y-76914190D01*
X168183906Y-77000350D01*
X168183913Y-77000354D01*
X168318620Y-77050596D01*
X168318627Y-77050598D01*
X168378155Y-77056999D01*
X168378172Y-77057000D01*
X169676000Y-77057000D01*
X169676000Y-75778802D01*
X169837169Y-75817000D01*
X169970267Y-75817000D01*
X170102461Y-75801549D01*
X170176000Y-75774782D01*
X170176000Y-77057000D01*
X171473828Y-77057000D01*
X171473844Y-77056999D01*
X171533372Y-77050598D01*
X171533379Y-77050596D01*
X171668086Y-77000354D01*
X171668093Y-77000350D01*
X171783187Y-76914190D01*
X171783190Y-76914187D01*
X171869350Y-76799093D01*
X171869354Y-76799086D01*
X171919596Y-76664379D01*
X171919598Y-76664372D01*
X171925999Y-76604844D01*
X171926000Y-76604827D01*
X171926000Y-75307000D01*
X170644483Y-75307000D01*
X170679549Y-75189871D01*
X170689879Y-75012509D01*
X170659029Y-74837546D01*
X170645853Y-74807000D01*
X171926000Y-74807000D01*
X171926000Y-73509172D01*
X171925999Y-73509155D01*
X171919598Y-73449627D01*
X171919596Y-73449620D01*
X171869354Y-73314913D01*
X171869350Y-73314906D01*
X171783190Y-73199812D01*
X171783187Y-73199809D01*
X171668093Y-73113649D01*
X171668086Y-73113645D01*
X171533379Y-73063403D01*
X171533372Y-73063401D01*
X171473844Y-73057000D01*
X170176000Y-73057000D01*
X170176000Y-74335197D01*
X170014831Y-74297000D01*
X169881733Y-74297000D01*
X169749539Y-74312451D01*
X169676000Y-74339217D01*
X169676000Y-73057000D01*
X168378155Y-73057000D01*
X168318627Y-73063401D01*
X168318620Y-73063403D01*
X168183913Y-73113645D01*
X168183906Y-73113649D01*
X168068812Y-73199809D01*
X168068809Y-73199812D01*
X167982649Y-73314906D01*
X167982645Y-73314913D01*
X167932403Y-73449620D01*
X167932401Y-73449627D01*
X167926000Y-73509155D01*
X167926000Y-74807000D01*
X169207517Y-74807000D01*
X169172451Y-74924129D01*
X169162121Y-75101491D01*
X169192971Y-75276454D01*
X169206147Y-75307000D01*
X167926000Y-75307000D01*
X167926000Y-76604844D01*
X162328271Y-76604844D01*
X162341468Y-76454000D01*
X162321635Y-76227308D01*
X162262739Y-76007504D01*
X162166568Y-75801266D01*
X162036047Y-75614861D01*
X162036045Y-75614858D01*
X161875141Y-75453954D01*
X161688734Y-75323432D01*
X161688732Y-75323431D01*
X161482497Y-75227261D01*
X161482488Y-75227258D01*
X161262697Y-75168366D01*
X161262693Y-75168365D01*
X161262692Y-75168365D01*
X161262691Y-75168364D01*
X161262686Y-75168364D01*
X161036002Y-75148532D01*
X161035998Y-75148532D01*
X160809313Y-75168364D01*
X160809302Y-75168366D01*
X160589511Y-75227258D01*
X160589502Y-75227261D01*
X160383267Y-75323431D01*
X160383265Y-75323432D01*
X160196858Y-75453954D01*
X160035954Y-75614858D01*
X159905432Y-75801265D01*
X159905431Y-75801267D01*
X159809261Y-76007502D01*
X159809258Y-76007511D01*
X159750366Y-76227302D01*
X159750364Y-76227313D01*
X159730532Y-76453998D01*
X159730532Y-76454001D01*
X158510357Y-76454001D01*
X158346734Y-76339432D01*
X158346732Y-76339431D01*
X158140497Y-76243261D01*
X158140488Y-76243258D01*
X157920697Y-76184366D01*
X157920693Y-76184365D01*
X157920692Y-76184365D01*
X157920691Y-76184364D01*
X157920686Y-76184364D01*
X157694002Y-76164532D01*
X157693998Y-76164532D01*
X157467313Y-76184364D01*
X157467302Y-76184366D01*
X157247511Y-76243258D01*
X157247502Y-76243261D01*
X157041267Y-76339431D01*
X157041265Y-76339432D01*
X156854858Y-76469954D01*
X156693954Y-76630858D01*
X156563432Y-76817265D01*
X156563431Y-76817267D01*
X156467261Y-77023502D01*
X156467258Y-77023511D01*
X156408366Y-77243302D01*
X156408364Y-77243313D01*
X156388532Y-77469998D01*
X156388532Y-77470001D01*
X153998966Y-77470001D01*
X153998966Y-77469997D01*
X153979141Y-77243400D01*
X153979139Y-77243389D01*
X153920269Y-77023682D01*
X153920265Y-77023673D01*
X153824133Y-76817516D01*
X153824131Y-76817512D01*
X153773026Y-76744526D01*
X153773025Y-76744526D01*
X153091953Y-77425598D01*
X153079165Y-77344852D01*
X153021641Y-77231955D01*
X152932045Y-77142359D01*
X152819148Y-77084835D01*
X152738400Y-77072046D01*
X153419472Y-76390974D01*
X153419471Y-76390973D01*
X153346483Y-76339866D01*
X153346481Y-76339865D01*
X153140326Y-76243734D01*
X153140317Y-76243730D01*
X152920610Y-76184860D01*
X152920599Y-76184858D01*
X152694002Y-76165034D01*
X152693998Y-76165034D01*
X152467400Y-76184858D01*
X152467389Y-76184860D01*
X152247682Y-76243730D01*
X152247673Y-76243734D01*
X152041513Y-76339868D01*
X151968527Y-76390972D01*
X151968526Y-76390973D01*
X152649600Y-77072046D01*
X152568852Y-77084835D01*
X152455955Y-77142359D01*
X152366359Y-77231955D01*
X152308835Y-77344852D01*
X152296046Y-77425599D01*
X151614973Y-76744526D01*
X151614972Y-76744527D01*
X151563868Y-76817513D01*
X151467734Y-77023673D01*
X151467730Y-77023682D01*
X151408860Y-77243389D01*
X151408858Y-77243400D01*
X151389034Y-77469997D01*
X151389034Y-77470002D01*
X124000500Y-77470002D01*
X124000500Y-74761870D01*
X143733500Y-74761870D01*
X143733501Y-74761876D01*
X143739908Y-74821483D01*
X143790202Y-74956328D01*
X143790206Y-74956335D01*
X143876452Y-75071544D01*
X143876455Y-75071547D01*
X143991664Y-75157793D01*
X143991671Y-75157797D01*
X144126517Y-75208091D01*
X144126516Y-75208091D01*
X144133444Y-75208835D01*
X144186127Y-75214500D01*
X145881872Y-75214499D01*
X145941483Y-75208091D01*
X146076331Y-75157796D01*
X146191546Y-75071546D01*
X146277796Y-74956331D01*
X146328091Y-74821483D01*
X146331944Y-74785644D01*
X146358679Y-74721098D01*
X146416070Y-74681248D01*
X146485895Y-74678753D01*
X146545985Y-74714404D01*
X146556806Y-74727777D01*
X146574341Y-74752819D01*
X146735179Y-74913657D01*
X146921517Y-75044134D01*
X147127673Y-75140265D01*
X147127682Y-75140269D01*
X147323999Y-75192872D01*
X147324000Y-75192871D01*
X147324000Y-74229686D01*
X147335955Y-74241641D01*
X147448852Y-74299165D01*
X147542519Y-74314000D01*
X147605481Y-74314000D01*
X147699148Y-74299165D01*
X147812045Y-74241641D01*
X147824000Y-74229686D01*
X147824000Y-75192872D01*
X148020317Y-75140269D01*
X148020326Y-75140265D01*
X148226482Y-75044134D01*
X148412820Y-74913657D01*
X148573657Y-74752820D01*
X148704132Y-74566484D01*
X148731341Y-74508134D01*
X148777513Y-74455695D01*
X148844707Y-74436542D01*
X148911588Y-74456757D01*
X148956106Y-74508133D01*
X148983431Y-74566732D01*
X148983432Y-74566734D01*
X149113954Y-74753141D01*
X149274858Y-74914045D01*
X149274861Y-74914047D01*
X149461266Y-75044568D01*
X149667504Y-75140739D01*
X149887308Y-75199635D01*
X150049230Y-75213801D01*
X150113998Y-75219468D01*
X150114000Y-75219468D01*
X150114002Y-75219468D01*
X150170807Y-75214498D01*
X150340692Y-75199635D01*
X150560496Y-75140739D01*
X150766734Y-75044568D01*
X150953139Y-74914047D01*
X151114047Y-74753139D01*
X151244568Y-74566734D01*
X151271895Y-74508129D01*
X151318064Y-74455695D01*
X151385257Y-74436542D01*
X151452139Y-74456757D01*
X151496657Y-74508133D01*
X151523865Y-74566482D01*
X151654342Y-74752820D01*
X151815179Y-74913657D01*
X152001517Y-75044134D01*
X152207673Y-75140265D01*
X152207682Y-75140269D01*
X152403999Y-75192872D01*
X152404000Y-75192871D01*
X152404000Y-74229686D01*
X152415955Y-74241641D01*
X152528852Y-74299165D01*
X152622519Y-74314000D01*
X152685481Y-74314000D01*
X152779148Y-74299165D01*
X152892045Y-74241641D01*
X152904000Y-74229686D01*
X152904000Y-75192872D01*
X153100317Y-75140269D01*
X153100326Y-75140265D01*
X153306482Y-75044134D01*
X153492820Y-74913657D01*
X153653657Y-74752820D01*
X153784134Y-74566482D01*
X153880265Y-74360326D01*
X153880269Y-74360317D01*
X153932872Y-74164000D01*
X152969686Y-74164000D01*
X152981641Y-74152045D01*
X153039165Y-74039148D01*
X153058986Y-73914002D01*
X155413034Y-73914002D01*
X155432858Y-74140599D01*
X155432860Y-74140610D01*
X155491730Y-74360317D01*
X155491734Y-74360326D01*
X155587865Y-74566481D01*
X155587866Y-74566483D01*
X155638973Y-74639471D01*
X155638974Y-74639472D01*
X156320046Y-73958399D01*
X156332835Y-74039148D01*
X156390359Y-74152045D01*
X156479955Y-74241641D01*
X156592852Y-74299165D01*
X156673599Y-74311953D01*
X155992526Y-74993025D01*
X155992526Y-74993026D01*
X156065512Y-75044131D01*
X156065516Y-75044133D01*
X156271673Y-75140265D01*
X156271682Y-75140269D01*
X156491389Y-75199139D01*
X156491400Y-75199141D01*
X156717998Y-75218966D01*
X156718002Y-75218966D01*
X156944599Y-75199141D01*
X156944610Y-75199139D01*
X157164317Y-75140269D01*
X157164331Y-75140264D01*
X157370478Y-75044136D01*
X157443472Y-74993025D01*
X156762401Y-74311953D01*
X156843148Y-74299165D01*
X156956045Y-74241641D01*
X157045641Y-74152045D01*
X157103165Y-74039148D01*
X157115953Y-73958400D01*
X157797025Y-74639472D01*
X157848136Y-74566478D01*
X157944264Y-74360331D01*
X157944269Y-74360317D01*
X158003139Y-74140610D01*
X158003141Y-74140599D01*
X158022966Y-73914002D01*
X158022966Y-73913997D01*
X158003141Y-73687400D01*
X158003139Y-73687389D01*
X157944269Y-73467682D01*
X157944265Y-73467673D01*
X157848133Y-73261516D01*
X157848131Y-73261512D01*
X157797026Y-73188526D01*
X157797025Y-73188526D01*
X157115953Y-73869598D01*
X157103165Y-73788852D01*
X157045641Y-73675955D01*
X156956045Y-73586359D01*
X156843148Y-73528835D01*
X156762400Y-73516046D01*
X157443472Y-72834974D01*
X157443471Y-72834973D01*
X157370483Y-72783866D01*
X157370481Y-72783865D01*
X157164326Y-72687734D01*
X157164317Y-72687730D01*
X156944610Y-72628860D01*
X156944599Y-72628858D01*
X156718002Y-72609034D01*
X156717998Y-72609034D01*
X156491400Y-72628858D01*
X156491389Y-72628860D01*
X156271682Y-72687730D01*
X156271673Y-72687734D01*
X156065513Y-72783868D01*
X155992527Y-72834972D01*
X155992526Y-72834973D01*
X156673600Y-73516046D01*
X156592852Y-73528835D01*
X156479955Y-73586359D01*
X156390359Y-73675955D01*
X156332835Y-73788852D01*
X156320046Y-73869599D01*
X155638973Y-73188526D01*
X155638972Y-73188527D01*
X155587868Y-73261513D01*
X155491734Y-73467673D01*
X155491730Y-73467682D01*
X155432860Y-73687389D01*
X155432858Y-73687400D01*
X155413034Y-73913997D01*
X155413034Y-73914002D01*
X153058986Y-73914002D01*
X153058986Y-73914000D01*
X153039165Y-73788852D01*
X152981641Y-73675955D01*
X152969686Y-73664000D01*
X153932872Y-73664000D01*
X153932872Y-73663999D01*
X153880269Y-73467682D01*
X153880265Y-73467673D01*
X153784134Y-73261517D01*
X153653657Y-73075179D01*
X153492820Y-72914342D01*
X153306482Y-72783865D01*
X153100328Y-72687734D01*
X152904000Y-72635127D01*
X152904000Y-73598314D01*
X152892045Y-73586359D01*
X152779148Y-73528835D01*
X152685481Y-73514000D01*
X152622519Y-73514000D01*
X152528852Y-73528835D01*
X152415955Y-73586359D01*
X152404000Y-73598314D01*
X152404000Y-72635127D01*
X152207671Y-72687734D01*
X152001517Y-72783865D01*
X151815179Y-72914342D01*
X151654342Y-73075179D01*
X151523867Y-73261515D01*
X151496657Y-73319867D01*
X151450484Y-73372306D01*
X151383290Y-73391457D01*
X151316409Y-73371241D01*
X151271893Y-73319865D01*
X151244685Y-73261518D01*
X151244568Y-73261266D01*
X151114047Y-73074861D01*
X151114045Y-73074858D01*
X150953141Y-72913954D01*
X150766734Y-72783432D01*
X150766732Y-72783431D01*
X150560497Y-72687261D01*
X150560488Y-72687258D01*
X150340697Y-72628366D01*
X150340693Y-72628365D01*
X150340692Y-72628365D01*
X150340691Y-72628364D01*
X150340686Y-72628364D01*
X150114002Y-72608532D01*
X150113998Y-72608532D01*
X149887313Y-72628364D01*
X149887302Y-72628366D01*
X149667511Y-72687258D01*
X149667502Y-72687261D01*
X149461267Y-72783431D01*
X149461265Y-72783432D01*
X149274858Y-72913954D01*
X149113954Y-73074858D01*
X149026464Y-73199809D01*
X148983432Y-73261266D01*
X148983315Y-73261518D01*
X148956106Y-73319867D01*
X148909933Y-73372306D01*
X148842739Y-73391457D01*
X148775858Y-73371241D01*
X148731342Y-73319865D01*
X148704135Y-73261520D01*
X148704134Y-73261518D01*
X148573657Y-73075179D01*
X148412820Y-72914342D01*
X148226482Y-72783865D01*
X148020328Y-72687734D01*
X147824000Y-72635127D01*
X147824000Y-73598314D01*
X147812045Y-73586359D01*
X147699148Y-73528835D01*
X147605481Y-73514000D01*
X147542519Y-73514000D01*
X147448852Y-73528835D01*
X147335955Y-73586359D01*
X147324000Y-73598314D01*
X147324000Y-72635127D01*
X147127671Y-72687734D01*
X146921517Y-72783865D01*
X146735179Y-72914342D01*
X146574339Y-73075182D01*
X146556806Y-73100222D01*
X146502229Y-73143845D01*
X146432730Y-73151037D01*
X146370376Y-73119513D01*
X146334963Y-73059283D01*
X146331943Y-73042349D01*
X146328091Y-73006516D01*
X146277797Y-72871671D01*
X146277793Y-72871664D01*
X146191547Y-72756455D01*
X146191544Y-72756452D01*
X146076335Y-72670206D01*
X146076328Y-72670202D01*
X145941482Y-72619908D01*
X145941483Y-72619908D01*
X145881883Y-72613501D01*
X145881881Y-72613500D01*
X145881873Y-72613500D01*
X145881864Y-72613500D01*
X144186129Y-72613500D01*
X144186123Y-72613501D01*
X144126516Y-72619908D01*
X143991671Y-72670202D01*
X143991664Y-72670206D01*
X143876455Y-72756452D01*
X143876452Y-72756455D01*
X143790206Y-72871664D01*
X143790202Y-72871671D01*
X143739908Y-73006517D01*
X143733501Y-73066116D01*
X143733500Y-73066135D01*
X143733500Y-74761870D01*
X124000500Y-74761870D01*
X124000500Y-68809114D01*
X137378532Y-68809114D01*
X137398364Y-69035799D01*
X137398366Y-69035810D01*
X137457258Y-69255601D01*
X137457261Y-69255610D01*
X137553431Y-69461845D01*
X137553432Y-69461847D01*
X137683954Y-69648254D01*
X137841086Y-69805386D01*
X137874571Y-69866709D01*
X137869587Y-69936401D01*
X137827715Y-69992334D01*
X137781932Y-70013741D01*
X137776522Y-70015019D01*
X137641671Y-70065315D01*
X137641664Y-70065319D01*
X137526455Y-70151565D01*
X137526452Y-70151568D01*
X137440206Y-70266777D01*
X137440202Y-70266784D01*
X137389908Y-70401630D01*
X137383501Y-70461229D01*
X137383501Y-70461236D01*
X137383500Y-70461248D01*
X137383500Y-72156983D01*
X137383501Y-72156989D01*
X137389908Y-72216596D01*
X137440202Y-72351441D01*
X137440206Y-72351448D01*
X137526452Y-72466657D01*
X137526455Y-72466660D01*
X137641664Y-72552906D01*
X137641671Y-72552910D01*
X137776517Y-72603204D01*
X137776516Y-72603204D01*
X137783444Y-72603948D01*
X137836127Y-72609613D01*
X139531872Y-72609612D01*
X139591483Y-72603204D01*
X139726331Y-72552909D01*
X139841546Y-72466659D01*
X139927796Y-72351444D01*
X139978091Y-72216596D01*
X139984500Y-72156986D01*
X139984499Y-70461241D01*
X139978091Y-70401630D01*
X139927796Y-70266782D01*
X139927795Y-70266781D01*
X139927793Y-70266777D01*
X139841547Y-70151568D01*
X139841544Y-70151565D01*
X139726335Y-70065319D01*
X139726328Y-70065315D01*
X139591483Y-70015021D01*
X139586079Y-70013745D01*
X139525363Y-69979173D01*
X139492976Y-69917262D01*
X139499202Y-69847671D01*
X139526910Y-69805388D01*
X139684047Y-69648252D01*
X139814568Y-69461847D01*
X139910739Y-69255609D01*
X139969635Y-69035805D01*
X139989468Y-68809113D01*
X139969635Y-68582421D01*
X139910739Y-68362617D01*
X139814568Y-68156379D01*
X139712540Y-68010666D01*
X139684045Y-67969971D01*
X139523141Y-67809067D01*
X139336734Y-67678545D01*
X139336732Y-67678544D01*
X139130497Y-67582374D01*
X139130488Y-67582371D01*
X138910697Y-67523479D01*
X138910693Y-67523478D01*
X138910692Y-67523478D01*
X138910691Y-67523477D01*
X138910686Y-67523477D01*
X138684002Y-67503645D01*
X138683998Y-67503645D01*
X138457313Y-67523477D01*
X138457302Y-67523479D01*
X138237511Y-67582371D01*
X138237502Y-67582374D01*
X138031267Y-67678544D01*
X138031265Y-67678545D01*
X137844858Y-67809067D01*
X137683954Y-67969971D01*
X137553432Y-68156378D01*
X137553431Y-68156380D01*
X137457261Y-68362615D01*
X137457258Y-68362624D01*
X137398366Y-68582415D01*
X137398364Y-68582426D01*
X137378532Y-68809111D01*
X137378532Y-68809114D01*
X124000500Y-68809114D01*
X124000500Y-66294001D01*
X143728532Y-66294001D01*
X143748364Y-66520686D01*
X143748366Y-66520697D01*
X143807258Y-66740488D01*
X143807261Y-66740497D01*
X143903431Y-66946732D01*
X143903432Y-66946734D01*
X144033954Y-67133141D01*
X144194858Y-67294045D01*
X144194861Y-67294047D01*
X144381266Y-67424568D01*
X144587504Y-67520739D01*
X144587509Y-67520740D01*
X144587511Y-67520741D01*
X144640415Y-67534916D01*
X144807308Y-67579635D01*
X144969230Y-67593801D01*
X145033998Y-67599468D01*
X145034000Y-67599468D01*
X145034002Y-67599468D01*
X145090673Y-67594509D01*
X145260692Y-67579635D01*
X145480496Y-67520739D01*
X145686734Y-67424568D01*
X145873139Y-67294047D01*
X146034047Y-67133139D01*
X146164568Y-66946734D01*
X146191618Y-66888724D01*
X146237790Y-66836285D01*
X146304983Y-66817133D01*
X146371865Y-66837348D01*
X146416382Y-66888725D01*
X146443429Y-66946728D01*
X146443432Y-66946734D01*
X146573954Y-67133141D01*
X146734858Y-67294045D01*
X146734861Y-67294047D01*
X146921266Y-67424568D01*
X147127504Y-67520739D01*
X147127509Y-67520740D01*
X147127511Y-67520741D01*
X147180415Y-67534916D01*
X147347308Y-67579635D01*
X147509230Y-67593801D01*
X147573998Y-67599468D01*
X147574000Y-67599468D01*
X147574002Y-67599468D01*
X147630673Y-67594509D01*
X147800692Y-67579635D01*
X148020496Y-67520739D01*
X148226734Y-67424568D01*
X148413139Y-67294047D01*
X148574047Y-67133139D01*
X148704568Y-66946734D01*
X148731618Y-66888724D01*
X148777790Y-66836285D01*
X148844983Y-66817133D01*
X148911865Y-66837348D01*
X148956382Y-66888725D01*
X148983429Y-66946728D01*
X148983432Y-66946734D01*
X149113954Y-67133141D01*
X149274858Y-67294045D01*
X149274861Y-67294047D01*
X149461266Y-67424568D01*
X149667504Y-67520739D01*
X149667509Y-67520740D01*
X149667511Y-67520741D01*
X149720415Y-67534916D01*
X149887308Y-67579635D01*
X150104073Y-67598599D01*
X150169141Y-67624051D01*
X150180946Y-67634446D01*
X152040236Y-69493736D01*
X152052871Y-69508529D01*
X152061110Y-69519869D01*
X152061116Y-69519875D01*
X152112712Y-69566332D01*
X152115067Y-69568567D01*
X152130616Y-69584116D01*
X152130626Y-69584125D01*
X152147719Y-69597967D01*
X152150187Y-69600075D01*
X152201784Y-69646533D01*
X152204765Y-69648254D01*
X152213919Y-69653539D01*
X152229951Y-69664557D01*
X152240851Y-69673384D01*
X152240855Y-69673386D01*
X152302729Y-69704912D01*
X152305577Y-69706458D01*
X152365716Y-69741179D01*
X152379051Y-69745511D01*
X152397018Y-69752953D01*
X152409513Y-69759320D01*
X152476604Y-69777297D01*
X152479697Y-69778213D01*
X152545744Y-69799674D01*
X152559688Y-69801139D01*
X152578814Y-69804685D01*
X152588441Y-69807264D01*
X152592355Y-69808313D01*
X152661719Y-69811947D01*
X152664931Y-69812200D01*
X152686808Y-69814500D01*
X152708798Y-69814500D01*
X152712041Y-69814584D01*
X152781389Y-69818219D01*
X152795229Y-69816027D01*
X152814628Y-69814500D01*
X155727952Y-69814500D01*
X155794991Y-69834185D01*
X155815628Y-69850814D01*
X155878859Y-69914045D01*
X155878862Y-69914048D01*
X155910786Y-69936401D01*
X156065266Y-70044568D01*
X156271504Y-70140739D01*
X156271509Y-70140740D01*
X156271511Y-70140741D01*
X156324415Y-70154916D01*
X156491308Y-70199635D01*
X156653230Y-70213801D01*
X156717998Y-70219468D01*
X156718000Y-70219468D01*
X156718002Y-70219468D01*
X156774673Y-70214509D01*
X156944692Y-70199635D01*
X157164496Y-70140739D01*
X157370734Y-70044568D01*
X157467231Y-69977001D01*
X167920390Y-69977001D01*
X167940804Y-70262433D01*
X168001628Y-70542037D01*
X168101635Y-70810166D01*
X168238770Y-71061309D01*
X168238775Y-71061317D01*
X168410254Y-71290387D01*
X168410270Y-71290405D01*
X168612594Y-71492729D01*
X168612612Y-71492745D01*
X168841682Y-71664224D01*
X168841690Y-71664229D01*
X169092833Y-71801364D01*
X169092832Y-71801364D01*
X169092836Y-71801365D01*
X169092839Y-71801367D01*
X169360954Y-71901369D01*
X169360960Y-71901370D01*
X169360962Y-71901371D01*
X169640566Y-71962195D01*
X169640568Y-71962195D01*
X169640572Y-71962196D01*
X169894220Y-71980337D01*
X169925999Y-71982610D01*
X169926000Y-71982610D01*
X169926001Y-71982610D01*
X169954595Y-71980564D01*
X170211428Y-71962196D01*
X170491046Y-71901369D01*
X170759161Y-71801367D01*
X171010315Y-71664226D01*
X171239395Y-71492739D01*
X171441739Y-71290395D01*
X171613226Y-71061315D01*
X171750367Y-70810161D01*
X171850369Y-70542046D01*
X171850371Y-70542037D01*
X171911195Y-70262433D01*
X171911195Y-70262432D01*
X171911196Y-70262428D01*
X171931610Y-69977000D01*
X171911196Y-69691572D01*
X171907239Y-69673384D01*
X171850371Y-69411962D01*
X171850370Y-69411960D01*
X171850369Y-69411954D01*
X171750367Y-69143839D01*
X171748651Y-69140697D01*
X171613229Y-68892690D01*
X171613224Y-68892682D01*
X171441745Y-68663612D01*
X171441729Y-68663594D01*
X171239405Y-68461270D01*
X171239387Y-68461254D01*
X171010317Y-68289775D01*
X171010309Y-68289770D01*
X170759166Y-68152635D01*
X170759167Y-68152635D01*
X170651915Y-68112632D01*
X170491046Y-68052631D01*
X170491043Y-68052630D01*
X170491037Y-68052628D01*
X170211433Y-67991804D01*
X169926001Y-67971390D01*
X169925999Y-67971390D01*
X169640566Y-67991804D01*
X169360962Y-68052628D01*
X169092833Y-68152635D01*
X168841690Y-68289770D01*
X168841682Y-68289775D01*
X168612612Y-68461254D01*
X168612594Y-68461270D01*
X168410270Y-68663594D01*
X168410254Y-68663612D01*
X168238775Y-68892682D01*
X168238770Y-68892690D01*
X168101635Y-69143833D01*
X168001628Y-69411962D01*
X167940804Y-69691566D01*
X167920390Y-69976998D01*
X167920390Y-69977001D01*
X157467231Y-69977001D01*
X157557139Y-69914047D01*
X157718047Y-69753139D01*
X157848568Y-69566734D01*
X157944739Y-69360496D01*
X158003635Y-69140692D01*
X158023468Y-68914000D01*
X158003635Y-68687308D01*
X157944739Y-68467504D01*
X157848568Y-68261266D01*
X157718047Y-68074861D01*
X157718045Y-68074858D01*
X157557141Y-67913954D01*
X157370734Y-67783432D01*
X157370732Y-67783431D01*
X157164497Y-67687261D01*
X157164488Y-67687258D01*
X156944697Y-67628366D01*
X156944693Y-67628365D01*
X156944692Y-67628365D01*
X156944691Y-67628364D01*
X156944686Y-67628364D01*
X156718002Y-67608532D01*
X156717998Y-67608532D01*
X156491313Y-67628364D01*
X156491302Y-67628366D01*
X156271511Y-67687258D01*
X156271502Y-67687261D01*
X156065267Y-67783431D01*
X156065265Y-67783432D01*
X155878862Y-67913951D01*
X155847248Y-67945566D01*
X155815631Y-67977182D01*
X155754311Y-68010666D01*
X155727952Y-68013500D01*
X153158362Y-68013500D01*
X153091323Y-67993815D01*
X153070681Y-67977181D01*
X153007451Y-67913951D01*
X152868863Y-67775364D01*
X152835379Y-67714042D01*
X152840363Y-67644351D01*
X152882234Y-67588417D01*
X152924449Y-67567910D01*
X153100496Y-67520739D01*
X153306734Y-67424568D01*
X153493139Y-67294047D01*
X153654047Y-67133139D01*
X153784568Y-66946734D01*
X153880739Y-66740496D01*
X153939635Y-66520692D01*
X153959468Y-66294001D01*
X159730532Y-66294001D01*
X159750364Y-66520686D01*
X159750366Y-66520697D01*
X159809258Y-66740488D01*
X159809261Y-66740497D01*
X159905431Y-66946732D01*
X159905432Y-66946734D01*
X160035954Y-67133141D01*
X160196858Y-67294045D01*
X160196861Y-67294047D01*
X160383266Y-67424568D01*
X160589504Y-67520739D01*
X160589509Y-67520740D01*
X160589511Y-67520741D01*
X160642415Y-67534916D01*
X160809308Y-67579635D01*
X160971230Y-67593801D01*
X161035998Y-67599468D01*
X161036000Y-67599468D01*
X161036002Y-67599468D01*
X161092673Y-67594509D01*
X161262692Y-67579635D01*
X161482496Y-67520739D01*
X161688734Y-67424568D01*
X161875139Y-67294047D01*
X162036047Y-67133139D01*
X162166568Y-66946734D01*
X162262739Y-66740496D01*
X162321635Y-66520692D01*
X162341468Y-66294000D01*
X162321635Y-66067308D01*
X162262739Y-65847504D01*
X162166568Y-65641266D01*
X162036047Y-65454861D01*
X162036045Y-65454858D01*
X161875141Y-65293954D01*
X161688734Y-65163432D01*
X161688732Y-65163431D01*
X161482497Y-65067261D01*
X161482488Y-65067258D01*
X161262697Y-65008366D01*
X161262693Y-65008365D01*
X161262692Y-65008365D01*
X161262691Y-65008364D01*
X161262686Y-65008364D01*
X161036002Y-64988532D01*
X161035998Y-64988532D01*
X160809313Y-65008364D01*
X160809302Y-65008366D01*
X160589511Y-65067258D01*
X160589502Y-65067261D01*
X160383267Y-65163431D01*
X160383265Y-65163432D01*
X160196858Y-65293954D01*
X160035954Y-65454858D01*
X159905432Y-65641265D01*
X159905431Y-65641267D01*
X159809261Y-65847502D01*
X159809258Y-65847511D01*
X159750366Y-66067302D01*
X159750364Y-66067313D01*
X159730532Y-66293998D01*
X159730532Y-66294001D01*
X153959468Y-66294001D01*
X153959468Y-66294000D01*
X153939635Y-66067308D01*
X153880739Y-65847504D01*
X153784568Y-65641266D01*
X153654047Y-65454861D01*
X153654045Y-65454858D01*
X153493141Y-65293954D01*
X153306734Y-65163432D01*
X153306732Y-65163431D01*
X153100497Y-65067261D01*
X153100488Y-65067258D01*
X152924451Y-65020090D01*
X152864790Y-64983725D01*
X152834261Y-64920878D01*
X152842556Y-64851503D01*
X152868860Y-64812637D01*
X154833628Y-62847870D01*
X166199500Y-62847870D01*
X166199501Y-62847876D01*
X166205908Y-62907483D01*
X166256202Y-63042328D01*
X166256206Y-63042335D01*
X166342452Y-63157544D01*
X166342455Y-63157547D01*
X166457664Y-63243793D01*
X166457671Y-63243797D01*
X166592517Y-63294091D01*
X166592516Y-63294091D01*
X166599444Y-63294835D01*
X166652127Y-63300500D01*
X168347872Y-63300499D01*
X168407483Y-63294091D01*
X168542331Y-63243796D01*
X168657546Y-63157546D01*
X168743796Y-63042331D01*
X168794091Y-62907483D01*
X168794092Y-62907472D01*
X168795365Y-62902088D01*
X168829933Y-62841369D01*
X168891841Y-62808978D01*
X168961433Y-62815199D01*
X169003725Y-62842912D01*
X169160858Y-63000045D01*
X169160861Y-63000047D01*
X169347266Y-63130568D01*
X169553504Y-63226739D01*
X169773308Y-63285635D01*
X169935230Y-63299801D01*
X169999998Y-63305468D01*
X170000000Y-63305468D01*
X170000002Y-63305468D01*
X170056807Y-63300498D01*
X170226692Y-63285635D01*
X170446496Y-63226739D01*
X170652734Y-63130568D01*
X170839139Y-63000047D01*
X171000047Y-62839139D01*
X171130568Y-62652734D01*
X171226739Y-62446496D01*
X171285635Y-62226692D01*
X171305468Y-62000000D01*
X171285635Y-61773308D01*
X171226739Y-61553504D01*
X171130568Y-61347266D01*
X171004074Y-61166612D01*
X171000045Y-61160858D01*
X170839141Y-60999954D01*
X170652734Y-60869432D01*
X170652732Y-60869431D01*
X170446497Y-60773261D01*
X170446488Y-60773258D01*
X170226697Y-60714366D01*
X170226693Y-60714365D01*
X170226692Y-60714365D01*
X170226691Y-60714364D01*
X170226686Y-60714364D01*
X170000002Y-60694532D01*
X169999998Y-60694532D01*
X169773313Y-60714364D01*
X169773302Y-60714366D01*
X169553511Y-60773258D01*
X169553502Y-60773261D01*
X169347267Y-60869431D01*
X169347265Y-60869432D01*
X169160862Y-60999951D01*
X169003726Y-61157087D01*
X168942403Y-61190571D01*
X168872711Y-61185587D01*
X168816778Y-61143715D01*
X168795369Y-61097923D01*
X168794091Y-61092518D01*
X168743797Y-60957671D01*
X168743793Y-60957664D01*
X168657547Y-60842455D01*
X168657544Y-60842452D01*
X168542335Y-60756206D01*
X168542328Y-60756202D01*
X168407482Y-60705908D01*
X168407483Y-60705908D01*
X168347883Y-60699501D01*
X168347881Y-60699500D01*
X168347873Y-60699500D01*
X168347864Y-60699500D01*
X166652129Y-60699500D01*
X166652123Y-60699501D01*
X166592516Y-60705908D01*
X166457671Y-60756202D01*
X166457664Y-60756206D01*
X166342455Y-60842452D01*
X166342452Y-60842455D01*
X166256206Y-60957664D01*
X166256202Y-60957671D01*
X166205908Y-61092517D01*
X166199501Y-61152116D01*
X166199500Y-61152135D01*
X166199500Y-62847870D01*
X154833628Y-62847870D01*
X155076630Y-62604868D01*
X155091413Y-62592242D01*
X155102759Y-62584000D01*
X155149227Y-62532390D01*
X155151428Y-62530070D01*
X155167008Y-62514492D01*
X155180863Y-62497380D01*
X155182942Y-62494946D01*
X155229421Y-62443328D01*
X155236425Y-62431195D01*
X155247451Y-62415153D01*
X155256270Y-62404262D01*
X155287802Y-62342375D01*
X155289330Y-62339559D01*
X155324067Y-62279396D01*
X155328397Y-62266068D01*
X155335848Y-62248081D01*
X155342207Y-62235601D01*
X155342208Y-62235600D01*
X155360184Y-62168509D01*
X155361102Y-62165413D01*
X155382562Y-62099368D01*
X155384027Y-62085429D01*
X155387575Y-62066287D01*
X155391201Y-62052757D01*
X155394835Y-61983393D01*
X155395089Y-61980176D01*
X155397387Y-61958311D01*
X155397388Y-61958303D01*
X155397388Y-61936313D01*
X155397473Y-61933068D01*
X155398799Y-61907766D01*
X155401107Y-61863724D01*
X155399559Y-61853952D01*
X155408510Y-61784661D01*
X155453503Y-61731206D01*
X155478691Y-61718371D01*
X155539219Y-61695796D01*
X155654434Y-61609546D01*
X155740684Y-61494331D01*
X155790979Y-61359483D01*
X155797388Y-61299873D01*
X155797387Y-61299845D01*
X155797566Y-61296547D01*
X155799071Y-61296627D01*
X155817000Y-61235326D01*
X155869756Y-61189514D01*
X155913352Y-61181981D01*
X156598934Y-60496399D01*
X156611723Y-60577148D01*
X156669247Y-60690045D01*
X156758843Y-60779641D01*
X156871740Y-60837165D01*
X156952487Y-60849953D01*
X156271414Y-61531025D01*
X156271414Y-61531026D01*
X156344400Y-61582131D01*
X156344404Y-61582133D01*
X156550561Y-61678265D01*
X156550570Y-61678269D01*
X156770277Y-61737139D01*
X156770288Y-61737141D01*
X156996886Y-61756966D01*
X156996890Y-61756966D01*
X157223487Y-61737141D01*
X157223498Y-61737139D01*
X157443205Y-61678269D01*
X157443219Y-61678264D01*
X157649366Y-61582136D01*
X157722360Y-61531025D01*
X157041289Y-60849953D01*
X157122036Y-60837165D01*
X157234933Y-60779641D01*
X157324529Y-60690045D01*
X157382053Y-60577148D01*
X157394841Y-60496400D01*
X158075913Y-61177472D01*
X158127024Y-61104478D01*
X158223152Y-60898331D01*
X158223157Y-60898317D01*
X158282027Y-60678610D01*
X158282029Y-60678599D01*
X158301854Y-60452002D01*
X158301854Y-60451997D01*
X158282029Y-60225400D01*
X158282027Y-60225389D01*
X158223157Y-60005682D01*
X158223153Y-60005673D01*
X158127021Y-59799516D01*
X158127019Y-59799512D01*
X158075914Y-59726526D01*
X158075913Y-59726526D01*
X157394841Y-60407598D01*
X157382053Y-60326852D01*
X157324529Y-60213955D01*
X157234933Y-60124359D01*
X157122036Y-60066835D01*
X157041288Y-60054046D01*
X157722360Y-59372974D01*
X157722359Y-59372973D01*
X157649371Y-59321866D01*
X157649369Y-59321865D01*
X157443214Y-59225734D01*
X157443205Y-59225730D01*
X157223498Y-59166860D01*
X157223487Y-59166858D01*
X156996890Y-59147034D01*
X156996886Y-59147034D01*
X156770288Y-59166858D01*
X156770277Y-59166860D01*
X156550570Y-59225730D01*
X156550561Y-59225734D01*
X156344401Y-59321868D01*
X156271415Y-59372972D01*
X156271414Y-59372973D01*
X156952488Y-60054046D01*
X156871740Y-60066835D01*
X156758843Y-60124359D01*
X156669247Y-60213955D01*
X156611723Y-60326852D01*
X156598934Y-60407599D01*
X155912686Y-59721351D01*
X155863693Y-59711505D01*
X155813511Y-59662889D01*
X155798869Y-59607366D01*
X155797788Y-59607423D01*
X155797742Y-59607429D01*
X155797741Y-59607426D01*
X155797564Y-59607436D01*
X155797387Y-59604135D01*
X155797387Y-59604128D01*
X155790979Y-59544517D01*
X155781832Y-59519993D01*
X155740685Y-59409671D01*
X155740681Y-59409664D01*
X155654435Y-59294455D01*
X155654432Y-59294452D01*
X155539223Y-59208206D01*
X155539216Y-59208202D01*
X155478055Y-59185391D01*
X155422121Y-59143520D01*
X155397704Y-59078056D01*
X155397388Y-59069209D01*
X155397388Y-57509472D01*
X155417073Y-57442433D01*
X155433702Y-57421796D01*
X159837737Y-53017760D01*
X159852525Y-53005130D01*
X159863871Y-52996888D01*
X159910347Y-52945270D01*
X159912570Y-52942928D01*
X159928119Y-52927380D01*
X159941982Y-52910260D01*
X159944049Y-52907841D01*
X159990533Y-52856216D01*
X159997538Y-52844080D01*
X160008570Y-52828031D01*
X160017381Y-52817151D01*
X160017383Y-52817149D01*
X160039114Y-52774497D01*
X160048934Y-52755222D01*
X160050425Y-52752476D01*
X160085179Y-52692284D01*
X160089509Y-52678956D01*
X160096960Y-52660969D01*
X160103319Y-52648490D01*
X160103320Y-52648488D01*
X160121297Y-52581390D01*
X160122201Y-52578337D01*
X160143674Y-52512256D01*
X160145139Y-52498307D01*
X160148684Y-52479183D01*
X160152312Y-52465646D01*
X160155947Y-52396284D01*
X160156200Y-52393071D01*
X160158500Y-52371192D01*
X160158500Y-52349196D01*
X160158585Y-52345950D01*
X160162219Y-52276612D01*
X160160027Y-52262772D01*
X160158500Y-52243373D01*
X160158500Y-52077999D01*
X163043127Y-52077999D01*
X163043128Y-52078000D01*
X164006314Y-52078000D01*
X163994359Y-52089955D01*
X163936835Y-52202852D01*
X163917014Y-52328000D01*
X163936835Y-52453148D01*
X163994359Y-52566045D01*
X164006314Y-52578000D01*
X163043128Y-52578000D01*
X163095730Y-52774317D01*
X163095734Y-52774326D01*
X163191865Y-52980482D01*
X163322342Y-53166820D01*
X163483179Y-53327657D01*
X163669517Y-53458134D01*
X163875673Y-53554265D01*
X163875682Y-53554269D01*
X164071999Y-53606872D01*
X164072000Y-53606871D01*
X164072000Y-52643686D01*
X164083955Y-52655641D01*
X164196852Y-52713165D01*
X164290519Y-52728000D01*
X164353481Y-52728000D01*
X164447148Y-52713165D01*
X164560045Y-52655641D01*
X164572000Y-52643686D01*
X164572000Y-53606872D01*
X164768317Y-53554269D01*
X164768326Y-53554265D01*
X164974482Y-53458134D01*
X165160820Y-53327657D01*
X165321657Y-53166820D01*
X165452134Y-52980482D01*
X165508388Y-52859844D01*
X167910000Y-52859844D01*
X167916401Y-52919372D01*
X167916403Y-52919379D01*
X167966645Y-53054086D01*
X167966649Y-53054093D01*
X168052809Y-53169187D01*
X168052812Y-53169190D01*
X168167906Y-53255350D01*
X168167913Y-53255354D01*
X168302620Y-53305596D01*
X168302627Y-53305598D01*
X168362155Y-53311999D01*
X168362172Y-53312000D01*
X169660000Y-53312000D01*
X169660000Y-52033802D01*
X169821169Y-52072000D01*
X169954267Y-52072000D01*
X170086461Y-52056549D01*
X170160000Y-52029782D01*
X170160000Y-53312000D01*
X171457828Y-53312000D01*
X171457844Y-53311999D01*
X171517372Y-53305598D01*
X171517379Y-53305596D01*
X171652086Y-53255354D01*
X171652093Y-53255350D01*
X171767187Y-53169190D01*
X171767190Y-53169187D01*
X171853350Y-53054093D01*
X171853354Y-53054086D01*
X171903596Y-52919379D01*
X171903598Y-52919372D01*
X171909999Y-52859844D01*
X171910000Y-52859827D01*
X171910000Y-51562000D01*
X170628483Y-51562000D01*
X170663549Y-51444871D01*
X170673879Y-51267509D01*
X170643029Y-51092546D01*
X170629853Y-51062000D01*
X171910000Y-51062000D01*
X171910000Y-49764172D01*
X171909999Y-49764155D01*
X171903598Y-49704627D01*
X171903596Y-49704620D01*
X171853354Y-49569913D01*
X171853350Y-49569906D01*
X171767190Y-49454812D01*
X171767187Y-49454809D01*
X171652093Y-49368649D01*
X171652086Y-49368645D01*
X171517379Y-49318403D01*
X171517372Y-49318401D01*
X171457844Y-49312000D01*
X170160000Y-49312000D01*
X170160000Y-50590197D01*
X169998831Y-50552000D01*
X169865733Y-50552000D01*
X169733539Y-50567451D01*
X169660000Y-50594217D01*
X169660000Y-49312000D01*
X168362155Y-49312000D01*
X168302627Y-49318401D01*
X168302620Y-49318403D01*
X168167913Y-49368645D01*
X168167906Y-49368649D01*
X168052812Y-49454809D01*
X168052809Y-49454812D01*
X167966649Y-49569906D01*
X167966645Y-49569913D01*
X167916403Y-49704620D01*
X167916401Y-49704627D01*
X167910000Y-49764155D01*
X167910000Y-51062000D01*
X169191517Y-51062000D01*
X169156451Y-51179129D01*
X169146121Y-51356491D01*
X169176971Y-51531454D01*
X169190147Y-51562000D01*
X167910000Y-51562000D01*
X167910000Y-52859844D01*
X165508388Y-52859844D01*
X165548265Y-52774326D01*
X165548269Y-52774317D01*
X165600872Y-52578000D01*
X164637686Y-52578000D01*
X164649641Y-52566045D01*
X164707165Y-52453148D01*
X164726986Y-52328000D01*
X164707165Y-52202852D01*
X164649641Y-52089955D01*
X164637686Y-52078000D01*
X165600872Y-52078000D01*
X165600872Y-52077999D01*
X165548269Y-51881682D01*
X165548265Y-51881673D01*
X165452134Y-51675517D01*
X165321657Y-51489179D01*
X165160820Y-51328342D01*
X164974482Y-51197865D01*
X164768328Y-51101734D01*
X164572000Y-51049127D01*
X164572000Y-52012314D01*
X164560045Y-52000359D01*
X164447148Y-51942835D01*
X164353481Y-51928000D01*
X164290519Y-51928000D01*
X164196852Y-51942835D01*
X164083955Y-52000359D01*
X164072000Y-52012314D01*
X164072000Y-51049127D01*
X163875671Y-51101734D01*
X163669517Y-51197865D01*
X163483179Y-51328342D01*
X163322342Y-51489179D01*
X163191865Y-51675517D01*
X163095734Y-51881673D01*
X163095730Y-51881682D01*
X163043127Y-52077999D01*
X160158500Y-52077999D01*
X160158500Y-48724589D01*
X160178185Y-48657550D01*
X160230989Y-48611795D01*
X160300147Y-48601851D01*
X160353621Y-48623014D01*
X160367266Y-48632568D01*
X160573504Y-48728739D01*
X160793308Y-48787635D01*
X160955230Y-48801801D01*
X161019998Y-48807468D01*
X161020000Y-48807468D01*
X161020002Y-48807468D01*
X161076673Y-48802509D01*
X161246692Y-48787635D01*
X161466496Y-48728739D01*
X161672734Y-48632568D01*
X161859139Y-48502047D01*
X162020047Y-48341139D01*
X162150568Y-48154734D01*
X162246739Y-47948496D01*
X162305635Y-47728692D01*
X162325468Y-47502000D01*
X162305635Y-47275308D01*
X162246739Y-47055504D01*
X162150568Y-46849266D01*
X162020047Y-46662861D01*
X162020045Y-46662858D01*
X161859141Y-46501954D01*
X161672734Y-46371432D01*
X161672732Y-46371431D01*
X161466497Y-46275261D01*
X161466488Y-46275258D01*
X161305048Y-46232001D01*
X167904390Y-46232001D01*
X167924804Y-46517433D01*
X167985628Y-46797037D01*
X167985630Y-46797043D01*
X167985631Y-46797046D01*
X168082031Y-47055504D01*
X168085635Y-47065166D01*
X168222770Y-47316309D01*
X168222775Y-47316317D01*
X168394254Y-47545387D01*
X168394270Y-47545405D01*
X168596594Y-47747729D01*
X168596612Y-47747745D01*
X168825682Y-47919224D01*
X168825690Y-47919229D01*
X169076833Y-48056364D01*
X169076832Y-48056364D01*
X169076836Y-48056365D01*
X169076839Y-48056367D01*
X169344954Y-48156369D01*
X169344960Y-48156370D01*
X169344962Y-48156371D01*
X169624566Y-48217195D01*
X169624568Y-48217195D01*
X169624572Y-48217196D01*
X169878220Y-48235337D01*
X169909999Y-48237610D01*
X169910000Y-48237610D01*
X169910001Y-48237610D01*
X169938595Y-48235564D01*
X170195428Y-48217196D01*
X170475046Y-48156369D01*
X170743161Y-48056367D01*
X170994315Y-47919226D01*
X171223395Y-47747739D01*
X171425739Y-47545395D01*
X171597226Y-47316315D01*
X171734367Y-47065161D01*
X171834369Y-46797046D01*
X171895196Y-46517428D01*
X171915610Y-46232000D01*
X171895196Y-45946572D01*
X171877556Y-45865483D01*
X171834371Y-45666962D01*
X171834370Y-45666960D01*
X171834369Y-45666954D01*
X171734367Y-45398839D01*
X171714251Y-45362000D01*
X171597229Y-45147690D01*
X171597224Y-45147682D01*
X171425745Y-44918612D01*
X171425729Y-44918594D01*
X171223405Y-44716270D01*
X171223387Y-44716254D01*
X170994317Y-44544775D01*
X170994309Y-44544770D01*
X170743166Y-44407635D01*
X170743167Y-44407635D01*
X170625815Y-44363865D01*
X170475046Y-44307631D01*
X170475043Y-44307630D01*
X170475037Y-44307628D01*
X170195433Y-44246804D01*
X169910001Y-44226390D01*
X169909999Y-44226390D01*
X169624566Y-44246804D01*
X169344962Y-44307628D01*
X169076833Y-44407635D01*
X168825690Y-44544770D01*
X168825682Y-44544775D01*
X168596612Y-44716254D01*
X168596594Y-44716270D01*
X168394270Y-44918594D01*
X168394254Y-44918612D01*
X168222775Y-45147682D01*
X168222770Y-45147690D01*
X168085635Y-45398833D01*
X167985628Y-45666962D01*
X167924804Y-45946566D01*
X167904390Y-46231998D01*
X167904390Y-46232001D01*
X161305048Y-46232001D01*
X161246697Y-46216366D01*
X161246693Y-46216365D01*
X161246692Y-46216365D01*
X161246691Y-46216364D01*
X161246686Y-46216364D01*
X161020002Y-46196532D01*
X161019998Y-46196532D01*
X160793313Y-46216364D01*
X160793302Y-46216366D01*
X160573511Y-46275258D01*
X160573502Y-46275261D01*
X160367267Y-46371431D01*
X160367266Y-46371432D01*
X160353620Y-46380986D01*
X160287416Y-46403313D01*
X160219649Y-46386301D01*
X160171836Y-46335352D01*
X160158500Y-46279410D01*
X160158500Y-42598626D01*
X160160027Y-42579225D01*
X160162219Y-42565388D01*
X160158584Y-42496040D01*
X160158500Y-42492797D01*
X160158500Y-42470809D01*
X160158499Y-42470800D01*
X160156201Y-42448936D01*
X160155947Y-42445720D01*
X160152313Y-42376355D01*
X160148685Y-42362814D01*
X160145139Y-42343688D01*
X160143674Y-42329744D01*
X160122209Y-42263682D01*
X160121296Y-42260601D01*
X160103320Y-42193512D01*
X160096956Y-42181022D01*
X160089511Y-42163050D01*
X160085179Y-42149716D01*
X160050453Y-42089569D01*
X160048903Y-42086714D01*
X160017383Y-42024851D01*
X160008557Y-42013952D01*
X159997540Y-41997920D01*
X159995065Y-41993633D01*
X159990533Y-41985784D01*
X159964514Y-41956887D01*
X159944058Y-41934168D01*
X159941964Y-41931716D01*
X159928120Y-41914620D01*
X159912568Y-41899068D01*
X159910348Y-41896730D01*
X159863871Y-41845112D01*
X159863869Y-41845110D01*
X159852529Y-41836871D01*
X159837736Y-41824236D01*
X158042446Y-40028946D01*
X158008961Y-39967623D01*
X158006599Y-39952072D01*
X157987635Y-39735308D01*
X157928739Y-39515504D01*
X157832568Y-39309266D01*
X157702047Y-39122861D01*
X157702045Y-39122858D01*
X157541141Y-38961954D01*
X157354734Y-38831432D01*
X157354732Y-38831431D01*
X157148497Y-38735261D01*
X157148488Y-38735258D01*
X156928697Y-38676366D01*
X156928693Y-38676365D01*
X156928692Y-38676365D01*
X156928691Y-38676364D01*
X156928686Y-38676364D01*
X156702002Y-38656532D01*
X156701998Y-38656532D01*
X156475313Y-38676364D01*
X156475302Y-38676366D01*
X156255511Y-38735258D01*
X156255502Y-38735261D01*
X156049267Y-38831431D01*
X156049265Y-38831432D01*
X155862862Y-38961951D01*
X155831248Y-38993566D01*
X155799631Y-39025182D01*
X155738311Y-39058666D01*
X155711952Y-39061500D01*
X153162361Y-39061500D01*
X153095322Y-39041815D01*
X153074680Y-39025181D01*
X152868864Y-38819365D01*
X152835379Y-38758042D01*
X152840363Y-38688350D01*
X152882235Y-38632417D01*
X152924449Y-38611910D01*
X153100496Y-38564739D01*
X153306734Y-38468568D01*
X153493139Y-38338047D01*
X153654047Y-38177139D01*
X153784568Y-37990734D01*
X153880739Y-37784496D01*
X153939635Y-37564692D01*
X153959118Y-37342001D01*
X159714532Y-37342001D01*
X159734364Y-37568686D01*
X159734366Y-37568697D01*
X159793258Y-37788488D01*
X159793261Y-37788497D01*
X159889431Y-37994732D01*
X159889432Y-37994734D01*
X160019954Y-38181141D01*
X160180858Y-38342045D01*
X160180861Y-38342047D01*
X160367266Y-38472568D01*
X160573504Y-38568739D01*
X160573509Y-38568740D01*
X160573511Y-38568741D01*
X160626415Y-38582916D01*
X160793308Y-38627635D01*
X160938447Y-38640333D01*
X161019998Y-38647468D01*
X161020000Y-38647468D01*
X161020002Y-38647468D01*
X161095118Y-38640896D01*
X161246692Y-38627635D01*
X161466496Y-38568739D01*
X161672734Y-38472568D01*
X161859139Y-38342047D01*
X162011316Y-38189870D01*
X166109500Y-38189870D01*
X166109501Y-38189876D01*
X166115908Y-38249483D01*
X166166202Y-38384328D01*
X166166206Y-38384335D01*
X166252452Y-38499544D01*
X166252455Y-38499547D01*
X166367664Y-38585793D01*
X166367671Y-38585797D01*
X166502517Y-38636091D01*
X166502516Y-38636091D01*
X166509444Y-38636835D01*
X166562127Y-38642500D01*
X168257872Y-38642499D01*
X168317483Y-38636091D01*
X168452331Y-38585796D01*
X168567546Y-38499546D01*
X168653796Y-38384331D01*
X168704091Y-38249483D01*
X168704092Y-38249472D01*
X168705365Y-38244088D01*
X168739933Y-38183369D01*
X168801841Y-38150978D01*
X168871433Y-38157199D01*
X168913725Y-38184912D01*
X169070858Y-38342045D01*
X169070861Y-38342047D01*
X169257266Y-38472568D01*
X169463504Y-38568739D01*
X169463509Y-38568740D01*
X169463511Y-38568741D01*
X169516415Y-38582916D01*
X169683308Y-38627635D01*
X169828447Y-38640333D01*
X169909998Y-38647468D01*
X169910000Y-38647468D01*
X169910002Y-38647468D01*
X169985118Y-38640896D01*
X170136692Y-38627635D01*
X170356496Y-38568739D01*
X170562734Y-38472568D01*
X170749139Y-38342047D01*
X170910047Y-38181139D01*
X171040568Y-37994734D01*
X171136739Y-37788496D01*
X171195635Y-37568692D01*
X171215468Y-37342000D01*
X171195635Y-37115308D01*
X171136739Y-36895504D01*
X171040568Y-36689266D01*
X170910047Y-36502861D01*
X170910045Y-36502858D01*
X170749141Y-36341954D01*
X170562734Y-36211432D01*
X170562732Y-36211431D01*
X170356497Y-36115261D01*
X170356488Y-36115258D01*
X170136697Y-36056366D01*
X170136693Y-36056365D01*
X170136692Y-36056365D01*
X170136691Y-36056364D01*
X170136686Y-36056364D01*
X169910002Y-36036532D01*
X169909998Y-36036532D01*
X169683313Y-36056364D01*
X169683302Y-36056366D01*
X169463511Y-36115258D01*
X169463502Y-36115261D01*
X169257267Y-36211431D01*
X169257265Y-36211432D01*
X169070862Y-36341951D01*
X168913726Y-36499087D01*
X168852403Y-36532571D01*
X168782711Y-36527587D01*
X168726778Y-36485715D01*
X168705369Y-36439923D01*
X168704091Y-36434518D01*
X168653797Y-36299671D01*
X168653793Y-36299664D01*
X168567547Y-36184455D01*
X168567544Y-36184452D01*
X168452335Y-36098206D01*
X168452328Y-36098202D01*
X168317482Y-36047908D01*
X168317483Y-36047908D01*
X168257883Y-36041501D01*
X168257881Y-36041500D01*
X168257873Y-36041500D01*
X168257864Y-36041500D01*
X166562129Y-36041500D01*
X166562123Y-36041501D01*
X166502516Y-36047908D01*
X166367671Y-36098202D01*
X166367664Y-36098206D01*
X166252455Y-36184452D01*
X166252452Y-36184455D01*
X166166206Y-36299664D01*
X166166202Y-36299671D01*
X166115908Y-36434517D01*
X166109501Y-36494116D01*
X166109500Y-36494135D01*
X166109500Y-38189870D01*
X162011316Y-38189870D01*
X162020047Y-38181139D01*
X162150568Y-37994734D01*
X162246739Y-37788496D01*
X162305635Y-37568692D01*
X162325468Y-37342000D01*
X162305635Y-37115308D01*
X162246739Y-36895504D01*
X162150568Y-36689266D01*
X162020047Y-36502861D01*
X162020045Y-36502858D01*
X161859141Y-36341954D01*
X161672734Y-36211432D01*
X161672732Y-36211431D01*
X161466497Y-36115261D01*
X161466488Y-36115258D01*
X161246697Y-36056366D01*
X161246693Y-36056365D01*
X161246692Y-36056365D01*
X161246691Y-36056364D01*
X161246686Y-36056364D01*
X161020002Y-36036532D01*
X161019998Y-36036532D01*
X160793313Y-36056364D01*
X160793302Y-36056366D01*
X160573511Y-36115258D01*
X160573502Y-36115261D01*
X160367267Y-36211431D01*
X160367265Y-36211432D01*
X160180858Y-36341954D01*
X160019954Y-36502858D01*
X159889432Y-36689265D01*
X159889431Y-36689267D01*
X159793261Y-36895502D01*
X159793258Y-36895511D01*
X159734366Y-37115302D01*
X159734364Y-37115313D01*
X159714532Y-37341998D01*
X159714532Y-37342001D01*
X153959118Y-37342001D01*
X153959468Y-37338000D01*
X153939635Y-37111308D01*
X153880739Y-36891504D01*
X153784568Y-36685266D01*
X153654047Y-36498861D01*
X153654045Y-36498858D01*
X153493141Y-36337954D01*
X153306734Y-36207432D01*
X153306732Y-36207431D01*
X153100497Y-36111261D01*
X153100488Y-36111258D01*
X152924451Y-36064090D01*
X152864790Y-36027725D01*
X152834261Y-35964878D01*
X152842556Y-35895503D01*
X152868860Y-35856637D01*
X155035737Y-33689760D01*
X155050525Y-33677130D01*
X155061871Y-33668888D01*
X155108347Y-33617270D01*
X155110570Y-33614928D01*
X155126119Y-33599380D01*
X155139982Y-33582260D01*
X155142049Y-33579841D01*
X155188533Y-33528216D01*
X155195538Y-33516080D01*
X155206570Y-33500031D01*
X155215381Y-33489151D01*
X155215383Y-33489149D01*
X155246934Y-33427222D01*
X155248425Y-33424476D01*
X155283179Y-33364284D01*
X155287509Y-33350956D01*
X155294960Y-33332969D01*
X155301319Y-33320490D01*
X155301320Y-33320488D01*
X155319297Y-33253390D01*
X155320201Y-33250337D01*
X155341674Y-33184256D01*
X155343139Y-33170307D01*
X155346684Y-33151183D01*
X155350312Y-33137646D01*
X155353947Y-33068284D01*
X155354200Y-33065071D01*
X155356500Y-33043192D01*
X155356500Y-33021196D01*
X155356585Y-33017950D01*
X155360219Y-32948612D01*
X155358027Y-32934772D01*
X155356500Y-32915373D01*
X155356500Y-32882790D01*
X155376185Y-32815751D01*
X155428989Y-32769996D01*
X155437146Y-32766616D01*
X155498331Y-32743796D01*
X155613546Y-32657546D01*
X155699796Y-32542331D01*
X155750091Y-32407483D01*
X155756500Y-32347873D01*
X155756499Y-32347845D01*
X155756678Y-32344547D01*
X155758183Y-32344627D01*
X155776112Y-32283326D01*
X155828868Y-32237514D01*
X155872464Y-32229981D01*
X156558046Y-31544399D01*
X156570835Y-31625148D01*
X156628359Y-31738045D01*
X156717955Y-31827641D01*
X156830852Y-31885165D01*
X156911599Y-31897953D01*
X156230526Y-32579025D01*
X156230526Y-32579026D01*
X156303512Y-32630131D01*
X156303516Y-32630133D01*
X156509673Y-32726265D01*
X156509682Y-32726269D01*
X156729389Y-32785139D01*
X156729400Y-32785141D01*
X156955998Y-32804966D01*
X156956002Y-32804966D01*
X157182599Y-32785141D01*
X157182610Y-32785139D01*
X157402317Y-32726269D01*
X157402331Y-32726264D01*
X157608478Y-32630136D01*
X157681472Y-32579025D01*
X157000401Y-31897953D01*
X157081148Y-31885165D01*
X157194045Y-31827641D01*
X157283641Y-31738045D01*
X157341165Y-31625148D01*
X157353953Y-31544400D01*
X158035025Y-32225472D01*
X158086136Y-32152478D01*
X158182264Y-31946331D01*
X158182269Y-31946317D01*
X158241139Y-31726610D01*
X158241141Y-31726599D01*
X158260966Y-31500002D01*
X158260966Y-31499997D01*
X158241141Y-31273400D01*
X158241139Y-31273389D01*
X158182269Y-31053682D01*
X158182265Y-31053673D01*
X158086133Y-30847516D01*
X158086131Y-30847512D01*
X158035026Y-30774526D01*
X158035025Y-30774526D01*
X157353953Y-31455598D01*
X157341165Y-31374852D01*
X157283641Y-31261955D01*
X157194045Y-31172359D01*
X157081148Y-31114835D01*
X157000400Y-31102046D01*
X157681472Y-30420974D01*
X157681471Y-30420973D01*
X157608483Y-30369866D01*
X157608481Y-30369865D01*
X157402326Y-30273734D01*
X157402317Y-30273730D01*
X157182610Y-30214860D01*
X157182599Y-30214858D01*
X156956002Y-30195034D01*
X156955998Y-30195034D01*
X156729400Y-30214858D01*
X156729389Y-30214860D01*
X156509682Y-30273730D01*
X156509673Y-30273734D01*
X156303513Y-30369868D01*
X156230527Y-30420972D01*
X156230526Y-30420973D01*
X156911600Y-31102046D01*
X156830852Y-31114835D01*
X156717955Y-31172359D01*
X156628359Y-31261955D01*
X156570835Y-31374852D01*
X156558046Y-31455599D01*
X155871798Y-30769351D01*
X155822805Y-30759505D01*
X155772623Y-30710889D01*
X155757981Y-30655366D01*
X155756900Y-30655423D01*
X155756854Y-30655429D01*
X155756853Y-30655426D01*
X155756676Y-30655436D01*
X155756499Y-30652135D01*
X155756499Y-30652128D01*
X155750091Y-30592517D01*
X155728728Y-30535241D01*
X155699797Y-30457671D01*
X155699793Y-30457664D01*
X155613547Y-30342455D01*
X155613544Y-30342452D01*
X155498335Y-30256206D01*
X155498326Y-30256201D01*
X155438006Y-30233704D01*
X155382072Y-30191834D01*
X155357654Y-30126369D01*
X155372505Y-30058096D01*
X155393654Y-30029844D01*
X157551737Y-27871760D01*
X157566525Y-27859130D01*
X157577871Y-27850888D01*
X157624347Y-27799270D01*
X157626570Y-27796928D01*
X157642119Y-27781380D01*
X157655982Y-27764260D01*
X157658049Y-27761841D01*
X157671584Y-27746809D01*
X157704533Y-27710216D01*
X157711538Y-27698080D01*
X157722570Y-27682031D01*
X157731381Y-27671151D01*
X157731383Y-27671149D01*
X157732844Y-27668281D01*
X157762934Y-27609222D01*
X157764425Y-27606476D01*
X157799179Y-27546284D01*
X157803509Y-27532956D01*
X157810960Y-27514969D01*
X157817319Y-27502490D01*
X157817320Y-27502488D01*
X157817932Y-27500205D01*
X157835297Y-27435390D01*
X157836201Y-27432337D01*
X157857674Y-27366256D01*
X157859139Y-27352307D01*
X157862684Y-27333183D01*
X157866312Y-27319646D01*
X157869947Y-27250284D01*
X157870200Y-27247071D01*
X157871175Y-27237794D01*
X157872500Y-27225192D01*
X157872500Y-27203196D01*
X157872585Y-27199950D01*
X157876219Y-27130612D01*
X157874027Y-27116772D01*
X157872500Y-27097373D01*
X157872500Y-25772448D01*
X157892185Y-25705409D01*
X157920343Y-25674590D01*
X157923784Y-25671913D01*
X157968682Y-25623141D01*
X158009762Y-25578517D01*
X158069649Y-25542526D01*
X158100991Y-25538500D01*
X164203332Y-25538500D01*
X164270371Y-25558185D01*
X164316126Y-25610989D01*
X164321035Y-25623489D01*
X164341234Y-25684442D01*
X164343186Y-25690333D01*
X164343187Y-25690336D01*
X164368451Y-25731295D01*
X164435288Y-25839656D01*
X164559344Y-25963712D01*
X164708666Y-26055814D01*
X164875203Y-26110999D01*
X164977991Y-26121500D01*
X166278008Y-26121499D01*
X166380797Y-26110999D01*
X166547334Y-26055814D01*
X166696656Y-25963712D01*
X166820712Y-25839656D01*
X166912814Y-25690334D01*
X166912814Y-25690333D01*
X166916448Y-25684442D01*
X166968396Y-25637717D01*
X167037358Y-25626494D01*
X167101441Y-25654337D01*
X167109668Y-25661856D01*
X167256921Y-25809108D01*
X167450421Y-25944600D01*
X167664507Y-26044429D01*
X167664516Y-26044433D01*
X167878000Y-26101634D01*
X167878000Y-25056501D01*
X167985685Y-25105680D01*
X168092237Y-25121000D01*
X168163763Y-25121000D01*
X168270315Y-25105680D01*
X168378000Y-25056501D01*
X168378000Y-26101633D01*
X168591483Y-26044433D01*
X168591492Y-26044429D01*
X168805577Y-25944600D01*
X168805579Y-25944599D01*
X168999073Y-25809113D01*
X168999079Y-25809108D01*
X169166108Y-25642079D01*
X169166113Y-25642073D01*
X169301599Y-25448579D01*
X169301600Y-25448577D01*
X169401429Y-25234492D01*
X169401433Y-25234483D01*
X169462567Y-25006326D01*
X169462569Y-25006315D01*
X169474407Y-24871000D01*
X168561686Y-24871000D01*
X168587493Y-24830844D01*
X168628000Y-24692889D01*
X168628000Y-24549111D01*
X168587493Y-24411156D01*
X168561686Y-24371000D01*
X169474407Y-24371000D01*
X169474407Y-24370999D01*
X169462569Y-24235684D01*
X169462567Y-24235673D01*
X169401433Y-24007516D01*
X169401429Y-24007507D01*
X169301600Y-23793422D01*
X169301599Y-23793420D01*
X169166113Y-23599926D01*
X169166108Y-23599920D01*
X168999082Y-23432894D01*
X168805578Y-23297399D01*
X168591492Y-23197570D01*
X168591486Y-23197567D01*
X168378000Y-23140364D01*
X168378000Y-24185498D01*
X168270315Y-24136320D01*
X168163763Y-24121000D01*
X168092237Y-24121000D01*
X167985685Y-24136320D01*
X167878000Y-24185498D01*
X167878000Y-23140364D01*
X167877999Y-23140364D01*
X167664513Y-23197567D01*
X167664507Y-23197570D01*
X167450422Y-23297399D01*
X167450420Y-23297400D01*
X167256926Y-23432886D01*
X167109668Y-23580144D01*
X167048345Y-23613628D01*
X166978653Y-23608644D01*
X166922720Y-23566772D01*
X166916448Y-23557558D01*
X166862010Y-23469300D01*
X166820712Y-23402344D01*
X166696656Y-23278288D01*
X166603888Y-23221069D01*
X166547336Y-23186187D01*
X166547331Y-23186185D01*
X166545862Y-23185698D01*
X166380797Y-23131001D01*
X166380795Y-23131000D01*
X166278010Y-23120500D01*
X164977998Y-23120500D01*
X164977981Y-23120501D01*
X164875203Y-23131000D01*
X164875200Y-23131001D01*
X164708668Y-23186185D01*
X164708663Y-23186187D01*
X164559342Y-23278289D01*
X164435289Y-23402342D01*
X164343187Y-23551663D01*
X164343185Y-23551668D01*
X164338180Y-23566772D01*
X164314465Y-23638342D01*
X164309772Y-23652504D01*
X164269999Y-23709949D01*
X164205484Y-23736772D01*
X164192066Y-23737500D01*
X158100991Y-23737500D01*
X158033952Y-23717815D01*
X158009762Y-23697483D01*
X157923787Y-23604090D01*
X157923777Y-23604081D01*
X157740634Y-23461535D01*
X157740628Y-23461531D01*
X157536504Y-23351064D01*
X157536495Y-23351061D01*
X157316984Y-23275702D01*
X157126450Y-23243908D01*
X157088049Y-23237500D01*
X156855951Y-23237500D01*
X156817550Y-23243908D01*
X156627015Y-23275702D01*
X156407504Y-23351061D01*
X156407495Y-23351064D01*
X156203371Y-23461531D01*
X156203365Y-23461535D01*
X156020222Y-23604081D01*
X156020218Y-23604085D01*
X156011866Y-23613158D01*
X155951979Y-23649148D01*
X155882141Y-23647047D01*
X155824525Y-23607522D01*
X155804455Y-23572507D01*
X155775797Y-23495671D01*
X155775793Y-23495664D01*
X155689547Y-23380455D01*
X155689544Y-23380452D01*
X155574335Y-23294206D01*
X155574328Y-23294202D01*
X155439482Y-23243908D01*
X155439483Y-23243908D01*
X155379883Y-23237501D01*
X155379881Y-23237500D01*
X155379873Y-23237500D01*
X155379864Y-23237500D01*
X153484129Y-23237500D01*
X153484123Y-23237501D01*
X153424516Y-23243908D01*
X153289671Y-23294202D01*
X153289664Y-23294206D01*
X153174455Y-23380452D01*
X153174452Y-23380455D01*
X153088206Y-23495664D01*
X153088202Y-23495671D01*
X153037908Y-23630517D01*
X153036126Y-23638062D01*
X153033853Y-23637525D01*
X153011571Y-23691312D01*
X152954177Y-23731157D01*
X152915024Y-23737500D01*
X151895048Y-23737500D01*
X151828009Y-23717815D01*
X151807371Y-23701185D01*
X151744139Y-23637953D01*
X151744138Y-23637952D01*
X151744137Y-23637951D01*
X151557734Y-23507432D01*
X151557732Y-23507431D01*
X151351497Y-23411261D01*
X151351488Y-23411258D01*
X151131697Y-23352366D01*
X151131693Y-23352365D01*
X151131692Y-23352365D01*
X151131691Y-23352364D01*
X151131686Y-23352364D01*
X150905002Y-23332532D01*
X150904998Y-23332532D01*
X150678313Y-23352364D01*
X150678302Y-23352366D01*
X150458511Y-23411258D01*
X150458502Y-23411261D01*
X150252267Y-23507431D01*
X150252265Y-23507432D01*
X150065858Y-23637954D01*
X149904954Y-23798858D01*
X149774433Y-23985264D01*
X149774432Y-23985266D01*
X149774315Y-23985518D01*
X149747106Y-24043867D01*
X149700933Y-24096306D01*
X149633739Y-24115457D01*
X149566858Y-24095241D01*
X149522342Y-24043865D01*
X149495135Y-23985520D01*
X149495134Y-23985518D01*
X149364657Y-23799179D01*
X149203820Y-23638342D01*
X149017482Y-23507865D01*
X148811328Y-23411734D01*
X148615000Y-23359127D01*
X148615000Y-24322314D01*
X148603045Y-24310359D01*
X148490148Y-24252835D01*
X148396481Y-24238000D01*
X148333519Y-24238000D01*
X148239852Y-24252835D01*
X148126955Y-24310359D01*
X148115000Y-24322314D01*
X148115000Y-23359127D01*
X147918671Y-23411734D01*
X147712517Y-23507865D01*
X147526179Y-23638342D01*
X147365342Y-23799179D01*
X147234865Y-23985517D01*
X147138734Y-24191673D01*
X147138730Y-24191682D01*
X147086127Y-24387999D01*
X147086128Y-24388000D01*
X148049314Y-24388000D01*
X148037359Y-24399955D01*
X147979835Y-24512852D01*
X147960014Y-24638000D01*
X147979835Y-24763148D01*
X148037359Y-24876045D01*
X148049314Y-24888000D01*
X147086128Y-24888000D01*
X147138730Y-25084317D01*
X147138734Y-25084326D01*
X147234865Y-25290482D01*
X147365342Y-25476820D01*
X147526179Y-25637657D01*
X147712517Y-25768134D01*
X147918673Y-25864265D01*
X147918682Y-25864269D01*
X148114999Y-25916872D01*
X148115000Y-25916871D01*
X148115000Y-24953686D01*
X148126955Y-24965641D01*
X148239852Y-25023165D01*
X148333519Y-25038000D01*
X148396481Y-25038000D01*
X148490148Y-25023165D01*
X148603045Y-24965641D01*
X148615000Y-24953686D01*
X148615000Y-25916872D01*
X148811317Y-25864269D01*
X148811326Y-25864265D01*
X149017482Y-25768134D01*
X149203820Y-25637657D01*
X149364657Y-25476820D01*
X149495132Y-25290484D01*
X149522341Y-25232134D01*
X149568513Y-25179695D01*
X149635707Y-25160542D01*
X149702588Y-25180757D01*
X149747106Y-25232133D01*
X149774431Y-25290732D01*
X149774432Y-25290734D01*
X149904954Y-25477141D01*
X150065858Y-25638045D01*
X150065861Y-25638047D01*
X150252266Y-25768568D01*
X150458504Y-25864739D01*
X150678308Y-25923635D01*
X150820121Y-25936042D01*
X150904998Y-25943468D01*
X150905000Y-25943468D01*
X150905002Y-25943468D01*
X150961673Y-25938509D01*
X151131692Y-25923635D01*
X151351496Y-25864739D01*
X151557734Y-25768568D01*
X151744139Y-25638047D01*
X151807368Y-25574817D01*
X151868689Y-25541334D01*
X151895048Y-25538500D01*
X152915023Y-25538500D01*
X152982062Y-25558185D01*
X153027817Y-25610989D01*
X153035266Y-25638134D01*
X153036124Y-25637932D01*
X153037907Y-25645479D01*
X153088202Y-25780328D01*
X153088206Y-25780335D01*
X153174452Y-25895544D01*
X153174455Y-25895547D01*
X153289664Y-25981793D01*
X153289671Y-25981797D01*
X153424517Y-26032091D01*
X153424516Y-26032091D01*
X153431444Y-26032835D01*
X153484127Y-26038500D01*
X155379872Y-26038499D01*
X155439483Y-26032091D01*
X155574331Y-25981796D01*
X155689546Y-25895546D01*
X155775796Y-25780331D01*
X155779745Y-25769744D01*
X155804455Y-25703493D01*
X155846326Y-25647559D01*
X155911790Y-25623141D01*
X155980063Y-25637992D01*
X156011866Y-25662843D01*
X156020216Y-25671913D01*
X156023655Y-25674589D01*
X156064472Y-25731295D01*
X156071500Y-25772448D01*
X156071500Y-26753638D01*
X156051815Y-26820677D01*
X156035181Y-26841319D01*
X153876263Y-29000236D01*
X153861474Y-29012869D01*
X153850126Y-29021114D01*
X153803666Y-29072713D01*
X153801435Y-29075065D01*
X153785890Y-29090610D01*
X153785875Y-29090627D01*
X153772039Y-29107710D01*
X153769936Y-29110172D01*
X153723469Y-29161781D01*
X153723466Y-29161785D01*
X153716458Y-29173923D01*
X153705444Y-29189948D01*
X153696626Y-29200837D01*
X153696616Y-29200853D01*
X153665082Y-29262740D01*
X153663533Y-29265592D01*
X153628821Y-29325713D01*
X153624487Y-29339053D01*
X153617045Y-29357020D01*
X153610680Y-29369512D01*
X153592706Y-29436584D01*
X153591785Y-29439692D01*
X153570326Y-29505742D01*
X153570325Y-29505745D01*
X153568860Y-29519686D01*
X153565315Y-29538812D01*
X153561686Y-29552352D01*
X153558051Y-29621710D01*
X153557797Y-29624941D01*
X153555500Y-29646810D01*
X153555500Y-29668797D01*
X153555415Y-29672042D01*
X153551781Y-29741387D01*
X153553973Y-29755225D01*
X153555500Y-29774626D01*
X153555500Y-30117209D01*
X153535815Y-30184248D01*
X153483011Y-30230003D01*
X153474833Y-30233391D01*
X153413671Y-30256202D01*
X153413664Y-30256206D01*
X153298455Y-30342452D01*
X153298452Y-30342455D01*
X153212206Y-30457664D01*
X153212202Y-30457671D01*
X153161908Y-30592517D01*
X153155501Y-30652116D01*
X153155501Y-30652123D01*
X153155500Y-30652135D01*
X153155500Y-32347870D01*
X153155501Y-32347876D01*
X153161908Y-32407483D01*
X153212202Y-32542328D01*
X153212206Y-32542335D01*
X153298452Y-32657544D01*
X153298454Y-32657546D01*
X153311141Y-32667044D01*
X153353011Y-32722979D01*
X153357993Y-32792671D01*
X153324509Y-32853990D01*
X150180946Y-35997553D01*
X150119623Y-36031038D01*
X150104073Y-36033400D01*
X149887312Y-36052364D01*
X149887302Y-36052366D01*
X149667511Y-36111258D01*
X149667502Y-36111261D01*
X149461267Y-36207431D01*
X149461265Y-36207432D01*
X149274858Y-36337954D01*
X149113954Y-36498858D01*
X148983432Y-36685265D01*
X148983431Y-36685267D01*
X148956382Y-36743275D01*
X148910209Y-36795714D01*
X148843016Y-36814866D01*
X148776135Y-36794650D01*
X148731618Y-36743275D01*
X148704568Y-36685266D01*
X148574047Y-36498861D01*
X148574045Y-36498858D01*
X148413141Y-36337954D01*
X148226734Y-36207432D01*
X148226732Y-36207431D01*
X148020497Y-36111261D01*
X148020488Y-36111258D01*
X147800697Y-36052366D01*
X147800693Y-36052365D01*
X147800692Y-36052365D01*
X147800691Y-36052364D01*
X147800686Y-36052364D01*
X147574002Y-36032532D01*
X147573998Y-36032532D01*
X147347313Y-36052364D01*
X147347302Y-36052366D01*
X147127511Y-36111258D01*
X147127502Y-36111261D01*
X146921267Y-36207431D01*
X146921265Y-36207432D01*
X146734858Y-36337954D01*
X146573954Y-36498858D01*
X146443432Y-36685265D01*
X146443431Y-36685267D01*
X146416382Y-36743275D01*
X146370209Y-36795714D01*
X146303016Y-36814866D01*
X146236135Y-36794650D01*
X146191618Y-36743275D01*
X146164568Y-36685266D01*
X146034047Y-36498861D01*
X146034045Y-36498858D01*
X145873141Y-36337954D01*
X145686734Y-36207432D01*
X145686732Y-36207431D01*
X145480497Y-36111261D01*
X145480488Y-36111258D01*
X145260697Y-36052366D01*
X145260693Y-36052365D01*
X145260692Y-36052365D01*
X145260691Y-36052364D01*
X145260686Y-36052364D01*
X145034002Y-36032532D01*
X145033998Y-36032532D01*
X144807313Y-36052364D01*
X144807302Y-36052366D01*
X144587511Y-36111258D01*
X144587502Y-36111261D01*
X144381267Y-36207431D01*
X144381265Y-36207432D01*
X144194858Y-36337954D01*
X144033954Y-36498858D01*
X143903432Y-36685265D01*
X143903431Y-36685267D01*
X143807261Y-36891502D01*
X143807258Y-36891511D01*
X143748366Y-37111302D01*
X143748364Y-37111313D01*
X143728532Y-37337998D01*
X143728532Y-37338001D01*
X143748364Y-37564686D01*
X143748366Y-37564697D01*
X143807258Y-37784488D01*
X143807261Y-37784497D01*
X143903431Y-37990732D01*
X143903432Y-37990734D01*
X144033954Y-38177141D01*
X144194858Y-38338045D01*
X144194861Y-38338047D01*
X144381266Y-38468568D01*
X144587504Y-38564739D01*
X144587509Y-38564740D01*
X144587511Y-38564741D01*
X144612654Y-38571478D01*
X144807308Y-38623635D01*
X144949681Y-38636091D01*
X145033998Y-38643468D01*
X145034000Y-38643468D01*
X145034002Y-38643468D01*
X145090673Y-38638509D01*
X145260692Y-38623635D01*
X145480496Y-38564739D01*
X145686734Y-38468568D01*
X145873139Y-38338047D01*
X146034047Y-38177139D01*
X146164568Y-37990734D01*
X146191618Y-37932724D01*
X146237790Y-37880285D01*
X146304983Y-37861133D01*
X146371865Y-37881348D01*
X146416382Y-37932725D01*
X146443429Y-37990728D01*
X146443432Y-37990734D01*
X146573954Y-38177141D01*
X146734858Y-38338045D01*
X146734861Y-38338047D01*
X146921266Y-38468568D01*
X147127504Y-38564739D01*
X147127509Y-38564740D01*
X147127511Y-38564741D01*
X147152654Y-38571478D01*
X147347308Y-38623635D01*
X147489681Y-38636091D01*
X147573998Y-38643468D01*
X147574000Y-38643468D01*
X147574002Y-38643468D01*
X147630673Y-38638509D01*
X147800692Y-38623635D01*
X148020496Y-38564739D01*
X148226734Y-38468568D01*
X148413139Y-38338047D01*
X148574047Y-38177139D01*
X148704568Y-37990734D01*
X148731618Y-37932724D01*
X148777790Y-37880285D01*
X148844983Y-37861133D01*
X148911865Y-37881348D01*
X148956382Y-37932725D01*
X148983429Y-37990728D01*
X148983432Y-37990734D01*
X149113954Y-38177141D01*
X149274858Y-38338045D01*
X149274861Y-38338047D01*
X149461266Y-38468568D01*
X149667504Y-38564739D01*
X149667509Y-38564740D01*
X149667511Y-38564741D01*
X149692654Y-38571478D01*
X149887308Y-38623635D01*
X150104074Y-38642599D01*
X150169142Y-38668051D01*
X150180947Y-38678446D01*
X152044235Y-40541734D01*
X152056872Y-40556529D01*
X152065113Y-40567872D01*
X152116722Y-40614341D01*
X152119078Y-40616577D01*
X152134619Y-40632118D01*
X152151702Y-40645952D01*
X152154170Y-40648060D01*
X152205781Y-40694531D01*
X152205782Y-40694531D01*
X152205784Y-40694533D01*
X152217918Y-40701538D01*
X152233955Y-40712560D01*
X152244849Y-40721382D01*
X152244851Y-40721383D01*
X152306747Y-40752920D01*
X152309552Y-40754443D01*
X152328998Y-40765670D01*
X152369707Y-40789175D01*
X152369715Y-40789178D01*
X152369716Y-40789179D01*
X152383046Y-40793510D01*
X152401019Y-40800954D01*
X152413512Y-40807320D01*
X152480590Y-40825292D01*
X152483699Y-40826214D01*
X152496933Y-40830514D01*
X152549744Y-40847674D01*
X152560116Y-40848763D01*
X152563684Y-40849139D01*
X152582825Y-40852687D01*
X152596348Y-40856311D01*
X152596354Y-40856312D01*
X152665711Y-40859946D01*
X152668921Y-40860199D01*
X152690808Y-40862500D01*
X152712803Y-40862500D01*
X152716046Y-40862584D01*
X152785388Y-40866219D01*
X152799228Y-40864027D01*
X152818627Y-40862500D01*
X155711952Y-40862500D01*
X155778991Y-40882185D01*
X155799628Y-40898814D01*
X155862861Y-40962047D01*
X155862862Y-40962048D01*
X155894786Y-40984401D01*
X156049266Y-41092568D01*
X156255504Y-41188739D01*
X156255509Y-41188740D01*
X156255511Y-41188741D01*
X156308415Y-41202916D01*
X156475308Y-41247635D01*
X156692073Y-41266599D01*
X156757141Y-41292051D01*
X156768946Y-41302446D01*
X158321181Y-42854680D01*
X158354666Y-42916003D01*
X158357500Y-42942361D01*
X158357500Y-47205271D01*
X158337815Y-47272310D01*
X158285011Y-47318065D01*
X158215853Y-47328009D01*
X158181096Y-47317654D01*
X158125510Y-47291734D01*
X158124496Y-47291261D01*
X158124493Y-47291260D01*
X158124488Y-47291258D01*
X157904697Y-47232366D01*
X157904693Y-47232365D01*
X157904692Y-47232365D01*
X157904691Y-47232364D01*
X157904686Y-47232364D01*
X157678002Y-47212532D01*
X157677998Y-47212532D01*
X157451313Y-47232364D01*
X157451302Y-47232366D01*
X157231511Y-47291258D01*
X157231502Y-47291261D01*
X157025267Y-47387431D01*
X157025265Y-47387432D01*
X156838858Y-47517954D01*
X156677954Y-47678858D01*
X156547432Y-47865265D01*
X156547431Y-47865267D01*
X156451261Y-48071502D01*
X156451258Y-48071511D01*
X156392366Y-48291302D01*
X156392364Y-48291313D01*
X156372532Y-48517998D01*
X156372532Y-48518001D01*
X156392364Y-48744686D01*
X156392366Y-48744697D01*
X156451258Y-48964488D01*
X156451261Y-48964497D01*
X156547431Y-49170732D01*
X156547432Y-49170734D01*
X156677954Y-49357141D01*
X156838858Y-49518045D01*
X156838861Y-49518047D01*
X157025266Y-49648568D01*
X157231504Y-49744739D01*
X157451308Y-49803635D01*
X157613230Y-49817801D01*
X157677998Y-49823468D01*
X157678000Y-49823468D01*
X157678002Y-49823468D01*
X157734673Y-49818509D01*
X157904692Y-49803635D01*
X158124496Y-49744739D01*
X158181095Y-49718345D01*
X158250172Y-49707854D01*
X158313956Y-49736373D01*
X158352196Y-49794850D01*
X158357500Y-49830728D01*
X158357500Y-51899638D01*
X158337815Y-51966677D01*
X158321181Y-51987319D01*
X153917151Y-56391348D01*
X153902362Y-56403981D01*
X153891014Y-56412226D01*
X153844554Y-56463825D01*
X153842323Y-56466177D01*
X153826778Y-56481722D01*
X153826763Y-56481739D01*
X153812927Y-56498822D01*
X153810824Y-56501284D01*
X153764357Y-56552893D01*
X153764354Y-56552897D01*
X153757346Y-56565035D01*
X153746332Y-56581060D01*
X153737514Y-56591949D01*
X153737504Y-56591965D01*
X153705970Y-56653852D01*
X153704421Y-56656704D01*
X153669709Y-56716825D01*
X153665375Y-56730165D01*
X153657933Y-56748132D01*
X153651568Y-56760624D01*
X153633594Y-56827696D01*
X153632673Y-56830804D01*
X153611214Y-56896854D01*
X153611213Y-56896857D01*
X153609748Y-56910798D01*
X153606203Y-56929924D01*
X153602574Y-56943464D01*
X153598939Y-57012822D01*
X153598685Y-57016053D01*
X153596388Y-57037922D01*
X153596388Y-57059909D01*
X153596303Y-57063152D01*
X153592669Y-57132500D01*
X153594807Y-57146000D01*
X153594861Y-57146337D01*
X153596388Y-57165738D01*
X153596388Y-59069209D01*
X153576703Y-59136248D01*
X153523899Y-59182003D01*
X153515721Y-59185391D01*
X153454559Y-59208202D01*
X153454552Y-59208206D01*
X153339343Y-59294452D01*
X153339340Y-59294455D01*
X153253094Y-59409664D01*
X153253090Y-59409671D01*
X153202796Y-59544517D01*
X153196389Y-59604116D01*
X153196389Y-59604123D01*
X153196388Y-59604135D01*
X153196388Y-61299870D01*
X153196389Y-61299876D01*
X153202796Y-61359483D01*
X153253090Y-61494328D01*
X153253094Y-61494335D01*
X153339340Y-61609544D01*
X153344466Y-61614670D01*
X153377951Y-61675993D01*
X153372967Y-61745685D01*
X153344466Y-61790032D01*
X150180945Y-64953553D01*
X150119622Y-64987038D01*
X150104072Y-64989400D01*
X149887312Y-65008364D01*
X149887302Y-65008366D01*
X149667511Y-65067258D01*
X149667502Y-65067261D01*
X149461267Y-65163431D01*
X149461265Y-65163432D01*
X149274858Y-65293954D01*
X149113954Y-65454858D01*
X148983432Y-65641265D01*
X148983431Y-65641267D01*
X148956382Y-65699275D01*
X148910209Y-65751714D01*
X148843016Y-65770866D01*
X148776135Y-65750650D01*
X148731618Y-65699275D01*
X148704568Y-65641267D01*
X148704567Y-65641265D01*
X148574045Y-65454858D01*
X148413141Y-65293954D01*
X148226734Y-65163432D01*
X148226732Y-65163431D01*
X148020497Y-65067261D01*
X148020488Y-65067258D01*
X147800697Y-65008366D01*
X147800693Y-65008365D01*
X147800692Y-65008365D01*
X147800691Y-65008364D01*
X147800686Y-65008364D01*
X147574002Y-64988532D01*
X147573998Y-64988532D01*
X147347313Y-65008364D01*
X147347302Y-65008366D01*
X147127511Y-65067258D01*
X147127502Y-65067261D01*
X146921267Y-65163431D01*
X146921265Y-65163432D01*
X146734858Y-65293954D01*
X146573954Y-65454858D01*
X146443432Y-65641265D01*
X146443431Y-65641267D01*
X146416382Y-65699275D01*
X146370209Y-65751714D01*
X146303016Y-65770866D01*
X146236135Y-65750650D01*
X146191618Y-65699275D01*
X146164568Y-65641267D01*
X146164567Y-65641265D01*
X146034045Y-65454858D01*
X145873141Y-65293954D01*
X145686734Y-65163432D01*
X145686732Y-65163431D01*
X145480497Y-65067261D01*
X145480488Y-65067258D01*
X145260697Y-65008366D01*
X145260693Y-65008365D01*
X145260692Y-65008365D01*
X145260691Y-65008364D01*
X145260686Y-65008364D01*
X145034002Y-64988532D01*
X145033998Y-64988532D01*
X144807313Y-65008364D01*
X144807302Y-65008366D01*
X144587511Y-65067258D01*
X144587502Y-65067261D01*
X144381267Y-65163431D01*
X144381265Y-65163432D01*
X144194858Y-65293954D01*
X144033954Y-65454858D01*
X143903432Y-65641265D01*
X143903431Y-65641267D01*
X143807261Y-65847502D01*
X143807258Y-65847511D01*
X143748366Y-66067302D01*
X143748364Y-66067313D01*
X143728532Y-66293998D01*
X143728532Y-66294001D01*
X124000500Y-66294001D01*
X124000500Y-62020006D01*
X127599700Y-62020006D01*
X127618864Y-62251297D01*
X127618866Y-62251308D01*
X127675842Y-62476300D01*
X127769075Y-62688848D01*
X127896016Y-62883147D01*
X127896019Y-62883151D01*
X127896021Y-62883153D01*
X128053216Y-63053913D01*
X128053219Y-63053915D01*
X128053222Y-63053918D01*
X128236365Y-63196464D01*
X128236371Y-63196468D01*
X128236374Y-63196470D01*
X128292310Y-63226741D01*
X128416761Y-63294091D01*
X128440497Y-63306936D01*
X128554487Y-63346068D01*
X128660015Y-63382297D01*
X128660017Y-63382297D01*
X128660019Y-63382298D01*
X128888951Y-63420500D01*
X128888952Y-63420500D01*
X129080639Y-63420500D01*
X129147678Y-63440185D01*
X129168320Y-63456819D01*
X130045235Y-64333734D01*
X130057869Y-64348525D01*
X130066112Y-64359871D01*
X130066113Y-64359872D01*
X130117722Y-64406341D01*
X130120071Y-64408570D01*
X130135620Y-64424119D01*
X130152684Y-64437938D01*
X130152702Y-64437952D01*
X130155170Y-64440060D01*
X130206781Y-64486531D01*
X130206782Y-64486531D01*
X130206784Y-64486533D01*
X130206786Y-64486534D01*
X130218918Y-64493538D01*
X130234955Y-64504560D01*
X130245849Y-64513382D01*
X130245851Y-64513383D01*
X130307747Y-64544920D01*
X130310552Y-64546443D01*
X130329998Y-64557670D01*
X130370707Y-64581175D01*
X130370715Y-64581178D01*
X130370716Y-64581179D01*
X130384046Y-64585510D01*
X130402019Y-64592954D01*
X130414512Y-64599320D01*
X130481590Y-64617292D01*
X130484699Y-64618214D01*
X130497933Y-64622514D01*
X130550744Y-64639674D01*
X130561116Y-64640763D01*
X130564684Y-64641139D01*
X130583825Y-64644687D01*
X130597348Y-64648311D01*
X130597354Y-64648312D01*
X130666711Y-64651946D01*
X130669921Y-64652199D01*
X130691808Y-64654500D01*
X130713803Y-64654500D01*
X130717046Y-64654584D01*
X130786388Y-64658219D01*
X130800228Y-64656027D01*
X130819627Y-64654500D01*
X133396373Y-64654500D01*
X133415772Y-64656027D01*
X133429612Y-64658219D01*
X133498959Y-64654584D01*
X133502203Y-64654500D01*
X133524191Y-64654500D01*
X133524192Y-64654500D01*
X133540988Y-64652734D01*
X133546064Y-64652201D01*
X133549284Y-64651947D01*
X133618646Y-64648313D01*
X133632187Y-64644683D01*
X133651313Y-64641138D01*
X133665256Y-64639674D01*
X133731306Y-64618212D01*
X133734368Y-64617304D01*
X133801488Y-64599320D01*
X133813976Y-64592956D01*
X133831950Y-64585510D01*
X133845284Y-64581179D01*
X133905476Y-64546425D01*
X133908222Y-64544934D01*
X133970149Y-64513383D01*
X133981031Y-64504569D01*
X133997083Y-64493537D01*
X134009216Y-64486533D01*
X134060847Y-64440043D01*
X134063260Y-64437982D01*
X134080380Y-64424119D01*
X134095929Y-64408568D01*
X134098277Y-64406341D01*
X134149888Y-64359871D01*
X134158130Y-64348525D01*
X134170760Y-64333737D01*
X136596737Y-61907760D01*
X136611525Y-61895130D01*
X136622871Y-61886888D01*
X136669347Y-61835270D01*
X136671570Y-61832928D01*
X136687119Y-61817380D01*
X136700982Y-61800260D01*
X136703049Y-61797841D01*
X136749533Y-61746216D01*
X136756538Y-61734080D01*
X136767570Y-61718031D01*
X136776381Y-61707151D01*
X136776383Y-61707149D01*
X136785625Y-61689009D01*
X136807934Y-61645222D01*
X136809425Y-61642476D01*
X136844179Y-61582284D01*
X136848509Y-61568956D01*
X136855960Y-61550969D01*
X136862319Y-61538490D01*
X136862320Y-61538488D01*
X136864319Y-61531026D01*
X136880297Y-61471390D01*
X136881201Y-61468337D01*
X136902674Y-61402256D01*
X136904139Y-61388307D01*
X136907684Y-61369183D01*
X136911312Y-61355646D01*
X136914235Y-61299870D01*
X146338388Y-61299870D01*
X146338389Y-61299876D01*
X146344796Y-61359483D01*
X146395090Y-61494328D01*
X146395094Y-61494335D01*
X146481340Y-61609544D01*
X146481343Y-61609547D01*
X146596552Y-61695793D01*
X146596559Y-61695797D01*
X146731405Y-61746091D01*
X146731404Y-61746091D01*
X146738332Y-61746835D01*
X146791015Y-61752500D01*
X148486760Y-61752499D01*
X148546371Y-61746091D01*
X148681219Y-61695796D01*
X148796434Y-61609546D01*
X148882684Y-61494331D01*
X148932979Y-61359483D01*
X148939388Y-61299873D01*
X148939387Y-61299845D01*
X148939566Y-61296547D01*
X148941071Y-61296627D01*
X148959000Y-61235326D01*
X149011756Y-61189514D01*
X149055352Y-61181981D01*
X149740934Y-60496399D01*
X149753723Y-60577148D01*
X149811247Y-60690045D01*
X149900843Y-60779641D01*
X150013740Y-60837165D01*
X150094487Y-60849953D01*
X149413414Y-61531025D01*
X149413414Y-61531026D01*
X149486400Y-61582131D01*
X149486404Y-61582133D01*
X149692561Y-61678265D01*
X149692570Y-61678269D01*
X149912277Y-61737139D01*
X149912288Y-61737141D01*
X150138886Y-61756966D01*
X150138890Y-61756966D01*
X150365487Y-61737141D01*
X150365498Y-61737139D01*
X150585205Y-61678269D01*
X150585219Y-61678264D01*
X150791366Y-61582136D01*
X150864360Y-61531025D01*
X150183289Y-60849953D01*
X150264036Y-60837165D01*
X150376933Y-60779641D01*
X150466529Y-60690045D01*
X150524053Y-60577148D01*
X150536841Y-60496400D01*
X151217913Y-61177472D01*
X151269024Y-61104478D01*
X151365152Y-60898331D01*
X151365157Y-60898317D01*
X151424027Y-60678610D01*
X151424029Y-60678599D01*
X151443854Y-60452002D01*
X151443854Y-60451997D01*
X151424029Y-60225400D01*
X151424027Y-60225389D01*
X151365157Y-60005682D01*
X151365153Y-60005673D01*
X151269021Y-59799516D01*
X151269019Y-59799512D01*
X151217914Y-59726526D01*
X151217913Y-59726526D01*
X150536841Y-60407598D01*
X150524053Y-60326852D01*
X150466529Y-60213955D01*
X150376933Y-60124359D01*
X150264036Y-60066835D01*
X150183288Y-60054046D01*
X150864360Y-59372974D01*
X150864359Y-59372973D01*
X150791371Y-59321866D01*
X150791369Y-59321865D01*
X150585214Y-59225734D01*
X150585205Y-59225730D01*
X150365498Y-59166860D01*
X150365487Y-59166858D01*
X150138890Y-59147034D01*
X150138886Y-59147034D01*
X149912288Y-59166858D01*
X149912277Y-59166860D01*
X149692570Y-59225730D01*
X149692561Y-59225734D01*
X149486401Y-59321868D01*
X149413415Y-59372972D01*
X149413414Y-59372973D01*
X150094488Y-60054046D01*
X150013740Y-60066835D01*
X149900843Y-60124359D01*
X149811247Y-60213955D01*
X149753723Y-60326852D01*
X149740934Y-60407599D01*
X149054686Y-59721351D01*
X149005693Y-59711505D01*
X148955511Y-59662889D01*
X148940869Y-59607366D01*
X148939788Y-59607423D01*
X148939742Y-59607429D01*
X148939741Y-59607426D01*
X148939564Y-59607436D01*
X148939387Y-59604135D01*
X148939387Y-59604128D01*
X148932979Y-59544517D01*
X148923832Y-59519993D01*
X148882685Y-59409671D01*
X148882681Y-59409664D01*
X148796435Y-59294455D01*
X148796432Y-59294452D01*
X148681223Y-59208206D01*
X148681216Y-59208202D01*
X148546370Y-59157908D01*
X148546371Y-59157908D01*
X148486771Y-59151501D01*
X148486769Y-59151500D01*
X148486761Y-59151500D01*
X148486752Y-59151500D01*
X146791017Y-59151500D01*
X146791011Y-59151501D01*
X146731404Y-59157908D01*
X146596559Y-59208202D01*
X146596552Y-59208206D01*
X146481343Y-59294452D01*
X146481340Y-59294455D01*
X146395094Y-59409664D01*
X146395090Y-59409671D01*
X146344796Y-59544517D01*
X146338389Y-59604116D01*
X146338389Y-59604123D01*
X146338388Y-59604135D01*
X146338388Y-61299870D01*
X136914235Y-61299870D01*
X136914947Y-61286284D01*
X136915200Y-61283071D01*
X136916723Y-61268584D01*
X136917500Y-61261192D01*
X136917500Y-61239196D01*
X136917585Y-61235950D01*
X136917618Y-61235326D01*
X136921219Y-61166612D01*
X136919027Y-61152772D01*
X136917500Y-61133373D01*
X136917500Y-52328001D01*
X152856532Y-52328001D01*
X152876364Y-52554686D01*
X152876366Y-52554697D01*
X152935258Y-52774488D01*
X152935261Y-52774497D01*
X153031431Y-52980732D01*
X153031432Y-52980734D01*
X153161954Y-53167141D01*
X153322858Y-53328045D01*
X153322861Y-53328047D01*
X153509266Y-53458568D01*
X153715504Y-53554739D01*
X153935308Y-53613635D01*
X154097230Y-53627801D01*
X154161998Y-53633468D01*
X154162000Y-53633468D01*
X154162002Y-53633468D01*
X154218673Y-53628509D01*
X154388692Y-53613635D01*
X154608496Y-53554739D01*
X154814734Y-53458568D01*
X155001139Y-53328047D01*
X155162047Y-53167139D01*
X155292568Y-52980734D01*
X155388739Y-52774496D01*
X155447635Y-52554692D01*
X155467468Y-52328000D01*
X155447635Y-52101308D01*
X155388739Y-51881504D01*
X155292568Y-51675266D01*
X155162047Y-51488861D01*
X155162045Y-51488858D01*
X155001141Y-51327954D01*
X154814734Y-51197432D01*
X154814732Y-51197431D01*
X154608497Y-51101261D01*
X154608488Y-51101258D01*
X154388697Y-51042366D01*
X154388693Y-51042365D01*
X154388692Y-51042365D01*
X154388691Y-51042364D01*
X154388686Y-51042364D01*
X154162002Y-51022532D01*
X154161998Y-51022532D01*
X153935313Y-51042364D01*
X153935302Y-51042366D01*
X153715511Y-51101258D01*
X153715502Y-51101261D01*
X153509267Y-51197431D01*
X153509265Y-51197432D01*
X153322858Y-51327954D01*
X153161954Y-51488858D01*
X153031432Y-51675265D01*
X153031431Y-51675267D01*
X152935261Y-51881502D01*
X152935258Y-51881511D01*
X152876366Y-52101302D01*
X152876364Y-52101313D01*
X152856532Y-52327998D01*
X152856532Y-52328001D01*
X136917500Y-52328001D01*
X136917500Y-50550001D01*
X138164532Y-50550001D01*
X138184364Y-50776686D01*
X138184366Y-50776697D01*
X138243258Y-50996488D01*
X138243261Y-50996497D01*
X138339431Y-51202732D01*
X138339432Y-51202734D01*
X138469954Y-51389141D01*
X138630858Y-51550045D01*
X138630861Y-51550047D01*
X138817266Y-51680568D01*
X139023504Y-51776739D01*
X139243308Y-51835635D01*
X139405230Y-51849801D01*
X139469998Y-51855468D01*
X139470000Y-51855468D01*
X139470002Y-51855468D01*
X139526673Y-51850509D01*
X139696692Y-51835635D01*
X139916496Y-51776739D01*
X140122734Y-51680568D01*
X140309139Y-51550047D01*
X140470047Y-51389139D01*
X140600568Y-51202734D01*
X140607618Y-51187614D01*
X140653789Y-51135176D01*
X140720982Y-51116023D01*
X140787864Y-51136238D01*
X140832381Y-51187614D01*
X140839432Y-51202733D01*
X140839432Y-51202734D01*
X140969954Y-51389141D01*
X141130858Y-51550045D01*
X141130861Y-51550047D01*
X141317266Y-51680568D01*
X141523504Y-51776739D01*
X141743308Y-51835635D01*
X141905230Y-51849801D01*
X141969998Y-51855468D01*
X141970000Y-51855468D01*
X141970002Y-51855468D01*
X142026673Y-51850509D01*
X142196692Y-51835635D01*
X142416496Y-51776739D01*
X142622734Y-51680568D01*
X142809139Y-51550047D01*
X142970047Y-51389139D01*
X143100568Y-51202734D01*
X143196739Y-50996496D01*
X143255635Y-50776692D01*
X143275468Y-50550000D01*
X143255635Y-50323308D01*
X143196739Y-50103504D01*
X143100568Y-49897266D01*
X142970047Y-49710861D01*
X142970045Y-49710858D01*
X142809141Y-49549954D01*
X142622734Y-49419432D01*
X142622732Y-49419431D01*
X142416497Y-49323261D01*
X142416488Y-49323258D01*
X142196697Y-49264366D01*
X142196693Y-49264365D01*
X142196692Y-49264365D01*
X142196691Y-49264364D01*
X142196686Y-49264364D01*
X141970002Y-49244532D01*
X141969998Y-49244532D01*
X141743313Y-49264364D01*
X141743302Y-49264366D01*
X141523511Y-49323258D01*
X141523502Y-49323261D01*
X141317267Y-49419431D01*
X141317265Y-49419432D01*
X141130858Y-49549954D01*
X140969954Y-49710858D01*
X140839433Y-49897264D01*
X140839432Y-49897266D01*
X140832380Y-49912387D01*
X140786209Y-49964825D01*
X140719015Y-49983976D01*
X140652134Y-49963760D01*
X140607619Y-49912387D01*
X140600568Y-49897266D01*
X140470047Y-49710861D01*
X140470045Y-49710858D01*
X140309141Y-49549954D01*
X140122734Y-49419432D01*
X140122732Y-49419431D01*
X139916497Y-49323261D01*
X139916488Y-49323258D01*
X139696697Y-49264366D01*
X139696693Y-49264365D01*
X139696692Y-49264365D01*
X139696691Y-49264364D01*
X139696686Y-49264364D01*
X139470002Y-49244532D01*
X139469998Y-49244532D01*
X139243313Y-49264364D01*
X139243302Y-49264366D01*
X139023511Y-49323258D01*
X139023502Y-49323261D01*
X138817267Y-49419431D01*
X138817265Y-49419432D01*
X138630858Y-49549954D01*
X138469954Y-49710858D01*
X138339432Y-49897265D01*
X138339431Y-49897267D01*
X138243261Y-50103502D01*
X138243258Y-50103511D01*
X138184366Y-50323302D01*
X138184364Y-50323313D01*
X138164532Y-50549998D01*
X138164532Y-50550001D01*
X136917500Y-50550001D01*
X136917500Y-48518002D01*
X151373034Y-48518002D01*
X151392858Y-48744599D01*
X151392860Y-48744610D01*
X151451730Y-48964317D01*
X151451734Y-48964326D01*
X151547865Y-49170481D01*
X151547866Y-49170483D01*
X151598973Y-49243471D01*
X151598974Y-49243472D01*
X152280046Y-48562399D01*
X152292835Y-48643148D01*
X152350359Y-48756045D01*
X152439955Y-48845641D01*
X152552852Y-48903165D01*
X152633599Y-48915953D01*
X151952526Y-49597025D01*
X151952526Y-49597026D01*
X152025512Y-49648131D01*
X152025516Y-49648133D01*
X152231673Y-49744265D01*
X152231682Y-49744269D01*
X152451389Y-49803139D01*
X152451400Y-49803141D01*
X152677998Y-49822966D01*
X152678002Y-49822966D01*
X152904599Y-49803141D01*
X152904610Y-49803139D01*
X153124317Y-49744269D01*
X153124331Y-49744264D01*
X153330478Y-49648136D01*
X153403472Y-49597025D01*
X152722401Y-48915953D01*
X152803148Y-48903165D01*
X152916045Y-48845641D01*
X153005641Y-48756045D01*
X153063165Y-48643148D01*
X153075953Y-48562400D01*
X153757025Y-49243472D01*
X153808136Y-49170478D01*
X153904264Y-48964331D01*
X153904269Y-48964317D01*
X153963139Y-48744610D01*
X153963141Y-48744599D01*
X153982966Y-48518002D01*
X153982966Y-48517997D01*
X153963141Y-48291400D01*
X153963139Y-48291389D01*
X153904269Y-48071682D01*
X153904265Y-48071673D01*
X153808133Y-47865516D01*
X153808131Y-47865512D01*
X153757026Y-47792526D01*
X153757025Y-47792526D01*
X153075953Y-48473598D01*
X153063165Y-48392852D01*
X153005641Y-48279955D01*
X152916045Y-48190359D01*
X152803148Y-48132835D01*
X152722400Y-48120046D01*
X153403472Y-47438974D01*
X153403471Y-47438973D01*
X153330483Y-47387866D01*
X153330481Y-47387865D01*
X153124326Y-47291734D01*
X153124317Y-47291730D01*
X152904610Y-47232860D01*
X152904599Y-47232858D01*
X152678002Y-47213034D01*
X152677998Y-47213034D01*
X152451400Y-47232858D01*
X152451389Y-47232860D01*
X152231682Y-47291730D01*
X152231673Y-47291734D01*
X152025513Y-47387868D01*
X151952527Y-47438972D01*
X151952526Y-47438973D01*
X152633600Y-48120046D01*
X152552852Y-48132835D01*
X152439955Y-48190359D01*
X152350359Y-48279955D01*
X152292835Y-48392852D01*
X152280046Y-48473599D01*
X151598973Y-47792526D01*
X151598972Y-47792527D01*
X151547868Y-47865513D01*
X151451734Y-48071673D01*
X151451730Y-48071682D01*
X151392860Y-48291389D01*
X151392858Y-48291400D01*
X151373034Y-48517997D01*
X151373034Y-48518002D01*
X136917500Y-48518002D01*
X136917500Y-45805870D01*
X143733500Y-45805870D01*
X143733501Y-45805876D01*
X143739908Y-45865483D01*
X143790202Y-46000328D01*
X143790206Y-46000335D01*
X143876452Y-46115544D01*
X143876455Y-46115547D01*
X143991664Y-46201793D01*
X143991671Y-46201797D01*
X144126517Y-46252091D01*
X144126516Y-46252091D01*
X144133444Y-46252835D01*
X144186127Y-46258500D01*
X145881872Y-46258499D01*
X145941483Y-46252091D01*
X146076331Y-46201796D01*
X146191546Y-46115546D01*
X146277796Y-46000331D01*
X146328091Y-45865483D01*
X146331944Y-45829644D01*
X146358679Y-45765098D01*
X146416070Y-45725248D01*
X146485895Y-45722753D01*
X146545985Y-45758404D01*
X146556806Y-45771777D01*
X146574341Y-45796819D01*
X146735179Y-45957657D01*
X146921517Y-46088134D01*
X147127673Y-46184265D01*
X147127682Y-46184269D01*
X147323999Y-46236872D01*
X147324000Y-46236871D01*
X147324000Y-45273686D01*
X147335955Y-45285641D01*
X147448852Y-45343165D01*
X147542519Y-45358000D01*
X147605481Y-45358000D01*
X147699148Y-45343165D01*
X147812045Y-45285641D01*
X147824000Y-45273686D01*
X147824000Y-46236872D01*
X148020317Y-46184269D01*
X148020326Y-46184265D01*
X148226482Y-46088134D01*
X148412820Y-45957657D01*
X148573657Y-45796820D01*
X148704132Y-45610484D01*
X148731341Y-45552134D01*
X148777513Y-45499695D01*
X148844707Y-45480542D01*
X148911588Y-45500757D01*
X148956106Y-45552133D01*
X148983431Y-45610732D01*
X148983432Y-45610734D01*
X149113954Y-45797141D01*
X149274858Y-45958045D01*
X149274861Y-45958047D01*
X149461266Y-46088568D01*
X149667504Y-46184739D01*
X149667509Y-46184740D01*
X149667511Y-46184741D01*
X149680663Y-46188265D01*
X149887308Y-46243635D01*
X150049230Y-46257801D01*
X150113998Y-46263468D01*
X150114000Y-46263468D01*
X150114002Y-46263468D01*
X150170807Y-46258498D01*
X150340692Y-46243635D01*
X150560496Y-46184739D01*
X150766734Y-46088568D01*
X150953139Y-45958047D01*
X151114047Y-45797139D01*
X151244568Y-45610734D01*
X151271895Y-45552129D01*
X151318064Y-45499695D01*
X151385257Y-45480542D01*
X151452139Y-45500757D01*
X151496657Y-45552133D01*
X151523865Y-45610482D01*
X151654342Y-45796820D01*
X151815179Y-45957657D01*
X152001517Y-46088134D01*
X152207673Y-46184265D01*
X152207682Y-46184269D01*
X152403999Y-46236872D01*
X152404000Y-46236871D01*
X152404000Y-45273686D01*
X152415955Y-45285641D01*
X152528852Y-45343165D01*
X152622519Y-45358000D01*
X152685481Y-45358000D01*
X152779148Y-45343165D01*
X152892045Y-45285641D01*
X152904000Y-45273686D01*
X152904000Y-46236872D01*
X153100317Y-46184269D01*
X153100326Y-46184265D01*
X153306482Y-46088134D01*
X153492820Y-45957657D01*
X153653657Y-45796820D01*
X153784134Y-45610482D01*
X153880265Y-45404326D01*
X153880269Y-45404317D01*
X153932872Y-45208000D01*
X152969686Y-45208000D01*
X152981641Y-45196045D01*
X153039165Y-45083148D01*
X153058352Y-44962002D01*
X155397034Y-44962002D01*
X155416858Y-45188599D01*
X155416860Y-45188610D01*
X155475730Y-45408317D01*
X155475734Y-45408326D01*
X155571865Y-45614481D01*
X155571866Y-45614483D01*
X155622973Y-45687471D01*
X155622974Y-45687472D01*
X156304046Y-45006399D01*
X156316835Y-45087148D01*
X156374359Y-45200045D01*
X156463955Y-45289641D01*
X156576852Y-45347165D01*
X156657599Y-45359953D01*
X155976526Y-46041025D01*
X155976526Y-46041026D01*
X156049512Y-46092131D01*
X156049516Y-46092133D01*
X156255673Y-46188265D01*
X156255682Y-46188269D01*
X156475389Y-46247139D01*
X156475400Y-46247141D01*
X156701998Y-46266966D01*
X156702002Y-46266966D01*
X156928599Y-46247141D01*
X156928610Y-46247139D01*
X157148317Y-46188269D01*
X157148331Y-46188264D01*
X157354478Y-46092136D01*
X157427472Y-46041025D01*
X156746401Y-45359953D01*
X156827148Y-45347165D01*
X156940045Y-45289641D01*
X157029641Y-45200045D01*
X157087165Y-45087148D01*
X157099953Y-45006400D01*
X157781025Y-45687472D01*
X157832136Y-45614478D01*
X157928264Y-45408331D01*
X157928269Y-45408317D01*
X157987139Y-45188610D01*
X157987141Y-45188599D01*
X158006966Y-44962002D01*
X158006966Y-44961997D01*
X157987141Y-44735400D01*
X157987139Y-44735389D01*
X157928269Y-44515682D01*
X157928265Y-44515673D01*
X157832133Y-44309516D01*
X157832131Y-44309512D01*
X157781026Y-44236526D01*
X157781025Y-44236526D01*
X157099953Y-44917598D01*
X157087165Y-44836852D01*
X157029641Y-44723955D01*
X156940045Y-44634359D01*
X156827148Y-44576835D01*
X156746400Y-44564046D01*
X157427472Y-43882974D01*
X157427471Y-43882973D01*
X157354483Y-43831866D01*
X157354481Y-43831865D01*
X157148326Y-43735734D01*
X157148317Y-43735730D01*
X156928610Y-43676860D01*
X156928599Y-43676858D01*
X156702002Y-43657034D01*
X156701998Y-43657034D01*
X156475400Y-43676858D01*
X156475389Y-43676860D01*
X156255682Y-43735730D01*
X156255673Y-43735734D01*
X156049513Y-43831868D01*
X155976527Y-43882972D01*
X155976526Y-43882973D01*
X156657600Y-44564046D01*
X156576852Y-44576835D01*
X156463955Y-44634359D01*
X156374359Y-44723955D01*
X156316835Y-44836852D01*
X156304046Y-44917599D01*
X155622973Y-44236526D01*
X155622972Y-44236527D01*
X155571868Y-44309513D01*
X155475734Y-44515673D01*
X155475730Y-44515682D01*
X155416860Y-44735389D01*
X155416858Y-44735400D01*
X155397034Y-44961997D01*
X155397034Y-44962002D01*
X153058352Y-44962002D01*
X153058986Y-44958000D01*
X153039165Y-44832852D01*
X152981641Y-44719955D01*
X152969686Y-44708000D01*
X153932872Y-44708000D01*
X153932872Y-44707999D01*
X153880269Y-44511682D01*
X153880265Y-44511673D01*
X153784134Y-44305517D01*
X153653657Y-44119179D01*
X153492820Y-43958342D01*
X153306482Y-43827865D01*
X153100328Y-43731734D01*
X152904000Y-43679127D01*
X152904000Y-44642314D01*
X152892045Y-44630359D01*
X152779148Y-44572835D01*
X152685481Y-44558000D01*
X152622519Y-44558000D01*
X152528852Y-44572835D01*
X152415955Y-44630359D01*
X152404000Y-44642314D01*
X152404000Y-43679127D01*
X152207671Y-43731734D01*
X152001517Y-43827865D01*
X151815179Y-43958342D01*
X151654342Y-44119179D01*
X151523867Y-44305515D01*
X151496657Y-44363867D01*
X151450484Y-44416306D01*
X151383290Y-44435457D01*
X151316409Y-44415241D01*
X151271893Y-44363865D01*
X151246549Y-44309516D01*
X151244568Y-44305266D01*
X151114047Y-44118861D01*
X151114045Y-44118858D01*
X150953141Y-43957954D01*
X150766734Y-43827432D01*
X150766732Y-43827431D01*
X150560497Y-43731261D01*
X150560488Y-43731258D01*
X150340697Y-43672366D01*
X150340693Y-43672365D01*
X150340692Y-43672365D01*
X150340691Y-43672364D01*
X150340686Y-43672364D01*
X150114002Y-43652532D01*
X150113998Y-43652532D01*
X149887313Y-43672364D01*
X149887302Y-43672366D01*
X149667511Y-43731258D01*
X149667502Y-43731261D01*
X149461267Y-43827431D01*
X149461265Y-43827432D01*
X149274858Y-43957954D01*
X149113954Y-44118858D01*
X149024367Y-44246804D01*
X148983432Y-44305266D01*
X148983315Y-44305518D01*
X148956106Y-44363867D01*
X148909933Y-44416306D01*
X148842739Y-44435457D01*
X148775858Y-44415241D01*
X148731342Y-44363865D01*
X148704135Y-44305520D01*
X148704134Y-44305518D01*
X148573657Y-44119179D01*
X148412820Y-43958342D01*
X148226482Y-43827865D01*
X148020328Y-43731734D01*
X147824000Y-43679127D01*
X147824000Y-44642314D01*
X147812045Y-44630359D01*
X147699148Y-44572835D01*
X147605481Y-44558000D01*
X147542519Y-44558000D01*
X147448852Y-44572835D01*
X147335955Y-44630359D01*
X147324000Y-44642314D01*
X147324000Y-43679127D01*
X147127671Y-43731734D01*
X146921517Y-43827865D01*
X146735179Y-43958342D01*
X146574339Y-44119182D01*
X146556806Y-44144222D01*
X146502229Y-44187845D01*
X146432730Y-44195037D01*
X146370376Y-44163513D01*
X146334963Y-44103283D01*
X146331943Y-44086349D01*
X146328091Y-44050516D01*
X146277797Y-43915671D01*
X146277793Y-43915664D01*
X146191547Y-43800455D01*
X146191544Y-43800452D01*
X146076335Y-43714206D01*
X146076328Y-43714202D01*
X145941482Y-43663908D01*
X145941483Y-43663908D01*
X145881883Y-43657501D01*
X145881881Y-43657500D01*
X145881873Y-43657500D01*
X145881864Y-43657500D01*
X144186129Y-43657500D01*
X144186123Y-43657501D01*
X144126516Y-43663908D01*
X143991671Y-43714202D01*
X143991664Y-43714206D01*
X143876455Y-43800452D01*
X143876452Y-43800455D01*
X143790206Y-43915664D01*
X143790202Y-43915671D01*
X143739908Y-44050517D01*
X143733501Y-44110116D01*
X143733500Y-44110135D01*
X143733500Y-45805870D01*
X136917500Y-45805870D01*
X136917500Y-39857114D01*
X137362532Y-39857114D01*
X137382364Y-40083799D01*
X137382366Y-40083810D01*
X137441258Y-40303601D01*
X137441261Y-40303610D01*
X137537431Y-40509845D01*
X137537432Y-40509847D01*
X137667954Y-40696254D01*
X137825086Y-40853386D01*
X137858571Y-40914709D01*
X137853587Y-40984401D01*
X137811715Y-41040334D01*
X137765932Y-41061741D01*
X137760522Y-41063019D01*
X137625671Y-41113315D01*
X137625664Y-41113319D01*
X137510455Y-41199565D01*
X137510452Y-41199568D01*
X137424206Y-41314777D01*
X137424202Y-41314784D01*
X137373908Y-41449630D01*
X137367501Y-41509229D01*
X137367501Y-41509236D01*
X137367500Y-41509248D01*
X137367500Y-43204983D01*
X137367501Y-43204989D01*
X137373908Y-43264596D01*
X137424202Y-43399441D01*
X137424206Y-43399448D01*
X137510452Y-43514657D01*
X137510455Y-43514660D01*
X137625664Y-43600906D01*
X137625671Y-43600910D01*
X137760517Y-43651204D01*
X137760516Y-43651204D01*
X137767444Y-43651948D01*
X137820127Y-43657613D01*
X139515872Y-43657612D01*
X139575483Y-43651204D01*
X139710331Y-43600909D01*
X139825546Y-43514659D01*
X139911796Y-43399444D01*
X139962091Y-43264596D01*
X139968500Y-43204986D01*
X139968499Y-41509241D01*
X139962091Y-41449630D01*
X139911796Y-41314782D01*
X139911795Y-41314781D01*
X139911793Y-41314777D01*
X139825547Y-41199568D01*
X139825544Y-41199565D01*
X139710335Y-41113319D01*
X139710328Y-41113315D01*
X139575483Y-41063021D01*
X139570079Y-41061745D01*
X139509363Y-41027173D01*
X139476976Y-40965262D01*
X139483202Y-40895671D01*
X139510910Y-40853388D01*
X139668047Y-40696252D01*
X139798568Y-40509847D01*
X139894739Y-40303609D01*
X139953635Y-40083805D01*
X139973468Y-39857113D01*
X139953635Y-39630421D01*
X139894739Y-39410617D01*
X139798568Y-39204379D01*
X139696540Y-39058666D01*
X139668045Y-39017971D01*
X139507141Y-38857067D01*
X139320734Y-38726545D01*
X139320732Y-38726544D01*
X139114497Y-38630374D01*
X139114488Y-38630371D01*
X138894697Y-38571479D01*
X138894693Y-38571478D01*
X138894692Y-38571478D01*
X138894691Y-38571477D01*
X138894686Y-38571477D01*
X138668002Y-38551645D01*
X138667998Y-38551645D01*
X138441313Y-38571477D01*
X138441302Y-38571479D01*
X138221511Y-38630371D01*
X138221502Y-38630374D01*
X138015267Y-38726544D01*
X138015265Y-38726545D01*
X137828858Y-38857067D01*
X137667954Y-39017971D01*
X137537432Y-39204378D01*
X137537431Y-39204380D01*
X137441261Y-39410615D01*
X137441258Y-39410624D01*
X137382366Y-39630415D01*
X137382364Y-39630426D01*
X137362532Y-39857111D01*
X137362532Y-39857114D01*
X136917500Y-39857114D01*
X136917500Y-37635361D01*
X136937185Y-37568322D01*
X136953819Y-37547680D01*
X141645681Y-32855818D01*
X141707004Y-32822333D01*
X141733362Y-32819499D01*
X142856871Y-32819499D01*
X142856872Y-32819499D01*
X142916483Y-32813091D01*
X143051331Y-32762796D01*
X143166546Y-32676546D01*
X143252796Y-32561331D01*
X143303091Y-32426483D01*
X143309500Y-32366873D01*
X143309500Y-32347870D01*
X146257500Y-32347870D01*
X146257501Y-32347876D01*
X146263908Y-32407483D01*
X146314202Y-32542328D01*
X146314206Y-32542335D01*
X146400452Y-32657544D01*
X146400455Y-32657547D01*
X146515664Y-32743793D01*
X146515671Y-32743797D01*
X146650517Y-32794091D01*
X146650516Y-32794091D01*
X146657444Y-32794835D01*
X146710127Y-32800500D01*
X148405872Y-32800499D01*
X148465483Y-32794091D01*
X148600331Y-32743796D01*
X148715546Y-32657546D01*
X148801796Y-32542331D01*
X148852091Y-32407483D01*
X148858500Y-32347873D01*
X148858499Y-32347845D01*
X148858678Y-32344547D01*
X148860183Y-32344627D01*
X148878112Y-32283326D01*
X148930868Y-32237514D01*
X148974464Y-32229981D01*
X149660046Y-31544399D01*
X149672835Y-31625148D01*
X149730359Y-31738045D01*
X149819955Y-31827641D01*
X149932852Y-31885165D01*
X150013599Y-31897953D01*
X149332526Y-32579025D01*
X149332526Y-32579026D01*
X149405512Y-32630131D01*
X149405516Y-32630133D01*
X149611673Y-32726265D01*
X149611682Y-32726269D01*
X149831389Y-32785139D01*
X149831400Y-32785141D01*
X150057998Y-32804966D01*
X150058002Y-32804966D01*
X150284599Y-32785141D01*
X150284610Y-32785139D01*
X150504317Y-32726269D01*
X150504331Y-32726264D01*
X150710478Y-32630136D01*
X150783472Y-32579025D01*
X150102401Y-31897953D01*
X150183148Y-31885165D01*
X150296045Y-31827641D01*
X150385641Y-31738045D01*
X150443165Y-31625148D01*
X150455953Y-31544400D01*
X151137025Y-32225472D01*
X151188136Y-32152478D01*
X151284264Y-31946331D01*
X151284269Y-31946317D01*
X151343139Y-31726610D01*
X151343141Y-31726599D01*
X151362966Y-31500002D01*
X151362966Y-31499997D01*
X151343141Y-31273400D01*
X151343139Y-31273389D01*
X151284269Y-31053682D01*
X151284265Y-31053673D01*
X151188133Y-30847516D01*
X151188131Y-30847512D01*
X151137026Y-30774526D01*
X151137025Y-30774526D01*
X150455953Y-31455598D01*
X150443165Y-31374852D01*
X150385641Y-31261955D01*
X150296045Y-31172359D01*
X150183148Y-31114835D01*
X150102400Y-31102046D01*
X150783472Y-30420974D01*
X150783471Y-30420973D01*
X150710483Y-30369866D01*
X150710481Y-30369865D01*
X150504326Y-30273734D01*
X150504317Y-30273730D01*
X150284610Y-30214860D01*
X150284599Y-30214858D01*
X150058002Y-30195034D01*
X150057998Y-30195034D01*
X149831400Y-30214858D01*
X149831389Y-30214860D01*
X149611682Y-30273730D01*
X149611673Y-30273734D01*
X149405513Y-30369868D01*
X149332527Y-30420972D01*
X149332526Y-30420973D01*
X150013600Y-31102046D01*
X149932852Y-31114835D01*
X149819955Y-31172359D01*
X149730359Y-31261955D01*
X149672835Y-31374852D01*
X149660046Y-31455599D01*
X148973798Y-30769351D01*
X148924805Y-30759505D01*
X148874623Y-30710889D01*
X148859981Y-30655366D01*
X148858900Y-30655423D01*
X148858854Y-30655429D01*
X148858853Y-30655426D01*
X148858676Y-30655436D01*
X148858499Y-30652135D01*
X148858499Y-30652128D01*
X148852091Y-30592517D01*
X148830728Y-30535241D01*
X148801797Y-30457671D01*
X148801793Y-30457664D01*
X148715547Y-30342455D01*
X148715544Y-30342452D01*
X148600335Y-30256206D01*
X148600328Y-30256202D01*
X148465482Y-30205908D01*
X148465483Y-30205908D01*
X148405883Y-30199501D01*
X148405881Y-30199500D01*
X148405873Y-30199500D01*
X148405864Y-30199500D01*
X146710129Y-30199500D01*
X146710123Y-30199501D01*
X146650516Y-30205908D01*
X146515671Y-30256202D01*
X146515664Y-30256206D01*
X146400455Y-30342452D01*
X146400452Y-30342455D01*
X146314206Y-30457664D01*
X146314202Y-30457671D01*
X146263908Y-30592517D01*
X146257501Y-30652116D01*
X146257501Y-30652123D01*
X146257500Y-30652135D01*
X146257500Y-32347870D01*
X143309500Y-32347870D01*
X143309499Y-30371128D01*
X143303091Y-30311517D01*
X143288997Y-30273730D01*
X143252797Y-30176671D01*
X143252793Y-30176664D01*
X143166547Y-30061455D01*
X143166544Y-30061452D01*
X143051335Y-29975206D01*
X143051328Y-29975202D01*
X142916482Y-29924908D01*
X142916483Y-29924908D01*
X142856883Y-29918501D01*
X142856881Y-29918500D01*
X142856873Y-29918500D01*
X142856864Y-29918500D01*
X140861129Y-29918500D01*
X140861123Y-29918501D01*
X140801516Y-29924908D01*
X140666671Y-29975202D01*
X140666664Y-29975206D01*
X140551455Y-30061452D01*
X140551452Y-30061455D01*
X140465206Y-30176664D01*
X140465202Y-30176671D01*
X140414908Y-30311517D01*
X140408635Y-30369868D01*
X140408501Y-30371123D01*
X140408500Y-30371135D01*
X140408500Y-31494637D01*
X140388815Y-31561676D01*
X140372181Y-31582318D01*
X135732181Y-36222318D01*
X135670858Y-36255803D01*
X135601166Y-36250819D01*
X135545233Y-36208947D01*
X135520816Y-36143483D01*
X135520500Y-36134637D01*
X135520500Y-31369005D01*
X135904031Y-31369005D01*
X135923874Y-31608476D01*
X135982865Y-31841428D01*
X136079391Y-32061485D01*
X136171688Y-32202757D01*
X136796226Y-31578219D01*
X136834901Y-31671588D01*
X136931075Y-31796925D01*
X137056412Y-31893099D01*
X137149779Y-31931772D01*
X136524572Y-32556979D01*
X136524573Y-32556980D01*
X136563204Y-32587048D01*
X136563205Y-32587049D01*
X136774544Y-32701421D01*
X136774550Y-32701423D01*
X137001823Y-32779446D01*
X137238851Y-32819000D01*
X137479149Y-32819000D01*
X137716176Y-32779446D01*
X137943449Y-32701423D01*
X137943455Y-32701421D01*
X138154795Y-32587049D01*
X138154798Y-32587047D01*
X138193425Y-32556980D01*
X138193425Y-32556979D01*
X137568220Y-31931772D01*
X137661588Y-31893099D01*
X137786925Y-31796925D01*
X137883099Y-31671589D01*
X137921773Y-31578220D01*
X138546310Y-32202757D01*
X138638606Y-32061490D01*
X138735134Y-31841428D01*
X138794125Y-31608476D01*
X138813969Y-31369005D01*
X138813969Y-31368994D01*
X138794125Y-31129523D01*
X138735134Y-30896571D01*
X138638608Y-30676514D01*
X138546310Y-30535241D01*
X137921772Y-31159779D01*
X137883099Y-31066412D01*
X137786925Y-30941075D01*
X137661588Y-30844901D01*
X137568219Y-30806226D01*
X138193426Y-30181019D01*
X138193425Y-30181018D01*
X138154794Y-30150950D01*
X137943455Y-30036578D01*
X137943449Y-30036576D01*
X137716176Y-29958553D01*
X137479149Y-29919000D01*
X137238851Y-29919000D01*
X137001823Y-29958553D01*
X136774550Y-30036576D01*
X136774544Y-30036578D01*
X136563204Y-30150950D01*
X136563198Y-30150954D01*
X136524573Y-30181017D01*
X136524573Y-30181019D01*
X137149780Y-30806226D01*
X137056412Y-30844901D01*
X136931075Y-30941075D01*
X136834901Y-31066411D01*
X136796226Y-31159780D01*
X136171687Y-30535241D01*
X136079392Y-30676511D01*
X135982865Y-30896571D01*
X135923874Y-31129523D01*
X135904031Y-31368994D01*
X135904031Y-31369005D01*
X135520500Y-31369005D01*
X135520500Y-27412933D01*
X136354668Y-27412933D01*
X136378183Y-27546284D01*
X136385135Y-27585711D01*
X136454623Y-27746804D01*
X136454624Y-27746806D01*
X136454626Y-27746809D01*
X136509278Y-27820218D01*
X136559390Y-27887530D01*
X136693786Y-28000302D01*
X136771488Y-28039325D01*
X136850562Y-28079038D01*
X136850563Y-28079038D01*
X136850567Y-28079040D01*
X137021279Y-28119500D01*
X137021282Y-28119500D01*
X137152701Y-28119500D01*
X137152709Y-28119500D01*
X137283255Y-28104241D01*
X137448117Y-28044237D01*
X137594696Y-27947830D01*
X137715092Y-27820218D01*
X137802812Y-27668281D01*
X137853130Y-27500210D01*
X137858213Y-27412933D01*
X141354668Y-27412933D01*
X141378183Y-27546284D01*
X141385135Y-27585711D01*
X141454623Y-27746804D01*
X141454624Y-27746806D01*
X141454626Y-27746809D01*
X141509278Y-27820218D01*
X141559390Y-27887530D01*
X141693786Y-28000302D01*
X141771488Y-28039325D01*
X141850562Y-28079038D01*
X141850563Y-28079038D01*
X141850567Y-28079040D01*
X142021279Y-28119500D01*
X142021282Y-28119500D01*
X142152701Y-28119500D01*
X142152709Y-28119500D01*
X142283255Y-28104241D01*
X142448117Y-28044237D01*
X142594696Y-27947830D01*
X142715092Y-27820218D01*
X142802812Y-27668281D01*
X142853130Y-27500210D01*
X142863331Y-27325065D01*
X142832865Y-27152289D01*
X142763377Y-26991196D01*
X142658610Y-26850470D01*
X142586747Y-26790170D01*
X142524214Y-26737698D01*
X142524212Y-26737697D01*
X142367437Y-26658961D01*
X142367433Y-26658960D01*
X142196721Y-26618500D01*
X142065291Y-26618500D01*
X141960854Y-26630707D01*
X141934743Y-26633759D01*
X141934740Y-26633760D01*
X141769884Y-26693762D01*
X141769880Y-26693764D01*
X141623306Y-26790167D01*
X141623305Y-26790168D01*
X141502910Y-26917778D01*
X141415188Y-27069718D01*
X141364870Y-27237789D01*
X141364869Y-27237794D01*
X141354668Y-27412933D01*
X137858213Y-27412933D01*
X137863331Y-27325065D01*
X137832865Y-27152289D01*
X137763377Y-26991196D01*
X137658610Y-26850470D01*
X137586747Y-26790170D01*
X137524214Y-26737698D01*
X137524212Y-26737697D01*
X137367437Y-26658961D01*
X137367433Y-26658960D01*
X137196721Y-26618500D01*
X137065291Y-26618500D01*
X136960854Y-26630707D01*
X136934743Y-26633759D01*
X136934740Y-26633760D01*
X136769884Y-26693762D01*
X136769880Y-26693764D01*
X136623306Y-26790167D01*
X136623305Y-26790168D01*
X136502910Y-26917778D01*
X136415188Y-27069718D01*
X136364870Y-27237789D01*
X136364869Y-27237794D01*
X136354668Y-27412933D01*
X135520500Y-27412933D01*
X135520500Y-26382360D01*
X135540185Y-26315321D01*
X135556814Y-26294683D01*
X136495705Y-25355792D01*
X136557026Y-25322309D01*
X136583679Y-25320578D01*
X136583679Y-25319500D01*
X136829191Y-25319500D01*
X136829192Y-25319500D01*
X137066297Y-25279934D01*
X137293656Y-25201882D01*
X137505067Y-25087472D01*
X137694764Y-24939825D01*
X137857571Y-24762969D01*
X137989049Y-24561728D01*
X138085610Y-24341591D01*
X138144620Y-24108563D01*
X138164471Y-23869005D01*
X141053529Y-23869005D01*
X141073379Y-24108559D01*
X141132389Y-24341589D01*
X141228951Y-24561729D01*
X141314643Y-24692889D01*
X141360429Y-24762969D01*
X141523236Y-24939825D01*
X141523239Y-24939827D01*
X141523242Y-24939830D01*
X141712924Y-25087466D01*
X141712930Y-25087470D01*
X141712933Y-25087472D01*
X141924344Y-25201882D01*
X141924347Y-25201883D01*
X142151699Y-25279933D01*
X142151701Y-25279933D01*
X142151703Y-25279934D01*
X142388808Y-25319500D01*
X142388809Y-25319500D01*
X142629191Y-25319500D01*
X142629192Y-25319500D01*
X142866297Y-25279934D01*
X143093656Y-25201882D01*
X143305067Y-25087472D01*
X143494764Y-24939825D01*
X143657571Y-24762969D01*
X143789049Y-24561728D01*
X143885610Y-24341591D01*
X143944620Y-24108563D01*
X143964471Y-23869000D01*
X143962763Y-23848390D01*
X143950565Y-23701181D01*
X143944620Y-23629437D01*
X143885610Y-23396409D01*
X143789049Y-23176272D01*
X143718156Y-23067763D01*
X174145787Y-23067763D01*
X174175413Y-23337013D01*
X174175415Y-23337024D01*
X174238975Y-23580144D01*
X174243928Y-23599088D01*
X174349870Y-23848390D01*
X174433560Y-23985520D01*
X174490979Y-24079605D01*
X174490986Y-24079615D01*
X174664253Y-24287819D01*
X174664259Y-24287824D01*
X174769240Y-24381887D01*
X174865998Y-24468582D01*
X175091910Y-24618044D01*
X175337176Y-24733020D01*
X175337183Y-24733022D01*
X175337185Y-24733023D01*
X175596557Y-24811057D01*
X175596564Y-24811058D01*
X175596569Y-24811060D01*
X175864561Y-24850500D01*
X175864566Y-24850500D01*
X176067636Y-24850500D01*
X176119133Y-24846730D01*
X176270156Y-24835677D01*
X176382758Y-24810593D01*
X176534546Y-24776782D01*
X176534548Y-24776781D01*
X176534553Y-24776780D01*
X176787558Y-24680014D01*
X177023777Y-24547441D01*
X177238177Y-24381888D01*
X177426186Y-24186881D01*
X177583799Y-23966579D01*
X177682375Y-23774847D01*
X177707649Y-23725690D01*
X177707651Y-23725684D01*
X177707656Y-23725675D01*
X177795118Y-23469305D01*
X177844319Y-23202933D01*
X177854212Y-22932235D01*
X177824586Y-22662982D01*
X177756072Y-22400912D01*
X177650130Y-22151610D01*
X177509018Y-21920390D01*
X177419747Y-21813119D01*
X177335746Y-21712180D01*
X177335740Y-21712175D01*
X177134002Y-21531418D01*
X176908092Y-21381957D01*
X176868865Y-21363568D01*
X176662824Y-21266980D01*
X176662819Y-21266978D01*
X176662814Y-21266976D01*
X176403442Y-21188942D01*
X176403428Y-21188939D01*
X176287791Y-21171921D01*
X176135439Y-21149500D01*
X175932369Y-21149500D01*
X175932364Y-21149500D01*
X175729844Y-21164323D01*
X175729831Y-21164325D01*
X175465453Y-21223217D01*
X175465446Y-21223220D01*
X175212439Y-21319987D01*
X174976226Y-21452557D01*
X174761822Y-21618112D01*
X174573822Y-21813109D01*
X174573816Y-21813116D01*
X174416202Y-22033419D01*
X174416199Y-22033424D01*
X174292350Y-22274309D01*
X174292343Y-22274327D01*
X174204884Y-22530685D01*
X174204881Y-22530699D01*
X174155681Y-22797068D01*
X174155680Y-22797075D01*
X174145787Y-23067763D01*
X143718156Y-23067763D01*
X143657571Y-22975031D01*
X143494764Y-22798175D01*
X143494759Y-22798171D01*
X143494757Y-22798169D01*
X143305075Y-22650533D01*
X143305069Y-22650529D01*
X143093657Y-22536118D01*
X143093652Y-22536116D01*
X142866300Y-22458066D01*
X142688468Y-22428391D01*
X142629192Y-22418500D01*
X142388808Y-22418500D01*
X142341387Y-22426413D01*
X142151699Y-22458066D01*
X141924347Y-22536116D01*
X141924342Y-22536118D01*
X141712930Y-22650529D01*
X141712924Y-22650533D01*
X141523242Y-22798169D01*
X141523239Y-22798172D01*
X141360430Y-22975029D01*
X141360427Y-22975033D01*
X141228951Y-23176270D01*
X141132389Y-23396410D01*
X141073379Y-23629440D01*
X141053529Y-23868994D01*
X141053529Y-23869005D01*
X138164471Y-23869005D01*
X138164471Y-23869000D01*
X138162763Y-23848390D01*
X138150565Y-23701181D01*
X138144620Y-23629437D01*
X138085610Y-23396409D01*
X137989049Y-23176272D01*
X137857571Y-22975031D01*
X137694764Y-22798175D01*
X137694759Y-22798171D01*
X137694757Y-22798169D01*
X137505075Y-22650533D01*
X137505069Y-22650529D01*
X137293657Y-22536118D01*
X137293652Y-22536116D01*
X137066300Y-22458066D01*
X136888468Y-22428391D01*
X136829192Y-22418500D01*
X136588808Y-22418500D01*
X136541387Y-22426413D01*
X136351699Y-22458066D01*
X136124347Y-22536116D01*
X136124342Y-22536118D01*
X135912930Y-22650529D01*
X135912924Y-22650533D01*
X135723242Y-22798169D01*
X135723239Y-22798172D01*
X135560430Y-22975029D01*
X135560427Y-22975033D01*
X135428951Y-23176270D01*
X135332389Y-23396410D01*
X135273379Y-23629440D01*
X135253529Y-23868994D01*
X135253529Y-23869000D01*
X135261614Y-23966575D01*
X135262707Y-23979768D01*
X135248625Y-24048204D01*
X135226811Y-24077688D01*
X134040263Y-25264236D01*
X134025474Y-25276869D01*
X134014126Y-25285114D01*
X133967666Y-25336713D01*
X133965435Y-25339065D01*
X133949890Y-25354610D01*
X133949875Y-25354627D01*
X133936039Y-25371710D01*
X133933936Y-25374172D01*
X133887469Y-25425781D01*
X133887466Y-25425785D01*
X133880458Y-25437923D01*
X133869444Y-25453948D01*
X133860626Y-25464837D01*
X133860616Y-25464853D01*
X133829082Y-25526740D01*
X133827533Y-25529592D01*
X133792821Y-25589713D01*
X133788487Y-25603053D01*
X133781045Y-25621020D01*
X133774680Y-25633512D01*
X133756706Y-25700584D01*
X133755785Y-25703692D01*
X133734326Y-25769742D01*
X133734325Y-25769745D01*
X133732860Y-25783686D01*
X133729315Y-25802812D01*
X133725686Y-25816352D01*
X133722051Y-25885710D01*
X133721797Y-25888941D01*
X133719500Y-25910810D01*
X133719500Y-25932797D01*
X133719415Y-25936040D01*
X133717965Y-25963710D01*
X133715781Y-26005387D01*
X133717973Y-26019225D01*
X133719500Y-26038626D01*
X133719500Y-58480638D01*
X133699815Y-58547677D01*
X133683181Y-58568319D01*
X133059929Y-59191570D01*
X132998606Y-59225055D01*
X132928914Y-59220071D01*
X132872981Y-59178199D01*
X132852043Y-59134330D01*
X132834157Y-59063700D01*
X132740924Y-58851151D01*
X132613983Y-58656852D01*
X132613980Y-58656849D01*
X132613979Y-58656847D01*
X132456784Y-58486087D01*
X132417687Y-58455657D01*
X132304469Y-58367535D01*
X132263656Y-58310825D01*
X132259982Y-58241052D01*
X132294614Y-58180369D01*
X132303794Y-58172413D01*
X132303798Y-58172351D01*
X131637533Y-57506086D01*
X131647315Y-57504680D01*
X131778100Y-57444952D01*
X131886761Y-57350798D01*
X131964493Y-57229844D01*
X131988076Y-57149524D01*
X132656186Y-57817634D01*
X132740484Y-57688606D01*
X132833682Y-57476135D01*
X132890638Y-57251218D01*
X132909798Y-57020005D01*
X132909798Y-57019994D01*
X132890638Y-56788781D01*
X132833682Y-56563864D01*
X132740483Y-56351390D01*
X132656186Y-56222364D01*
X131988076Y-56890475D01*
X131964493Y-56810156D01*
X131886761Y-56689202D01*
X131778100Y-56595048D01*
X131647315Y-56535320D01*
X131637534Y-56533913D01*
X132303799Y-55867648D01*
X132303799Y-55867647D01*
X132273349Y-55843949D01*
X132069302Y-55733523D01*
X132069293Y-55733520D01*
X131849860Y-55658188D01*
X131621007Y-55620000D01*
X131388993Y-55620000D01*
X131160139Y-55658188D01*
X130940706Y-55733520D01*
X130940698Y-55733523D01*
X130736644Y-55843952D01*
X130706200Y-55867646D01*
X130706200Y-55867647D01*
X131372466Y-56533913D01*
X131362685Y-56535320D01*
X131231900Y-56595048D01*
X131123239Y-56689202D01*
X131045507Y-56810156D01*
X131021923Y-56890475D01*
X130349233Y-56217785D01*
X130327005Y-56187516D01*
X130252311Y-56044523D01*
X130130215Y-55894784D01*
X129980474Y-55772686D01*
X129809215Y-55683228D01*
X129623461Y-55630079D01*
X129623458Y-55630078D01*
X129510099Y-55620000D01*
X129255000Y-55620000D01*
X129255000Y-56584498D01*
X129147315Y-56535320D01*
X129040763Y-56520000D01*
X128969237Y-56520000D01*
X128862685Y-56535320D01*
X128755000Y-56584498D01*
X128755000Y-55620000D01*
X128754999Y-55620000D01*
X128499904Y-55620001D01*
X128499903Y-55620001D01*
X128386539Y-55630078D01*
X128200784Y-55683228D01*
X128029525Y-55772686D01*
X127879784Y-55894784D01*
X127757686Y-56044525D01*
X127668228Y-56215784D01*
X127615079Y-56401538D01*
X127615078Y-56401541D01*
X127605000Y-56514901D01*
X127605000Y-56770000D01*
X128571314Y-56770000D01*
X128545507Y-56810156D01*
X128505000Y-56948111D01*
X128505000Y-57091889D01*
X128545507Y-57229844D01*
X128571314Y-57270000D01*
X127605001Y-57270000D01*
X127605001Y-57525097D01*
X127615078Y-57638460D01*
X127668228Y-57824215D01*
X127757686Y-57995474D01*
X127879784Y-58145215D01*
X128029526Y-58267313D01*
X128029528Y-58267315D01*
X128040947Y-58273280D01*
X128091254Y-58321766D01*
X128107361Y-58389754D01*
X128084154Y-58455657D01*
X128059703Y-58481037D01*
X128053220Y-58486083D01*
X128053219Y-58486084D01*
X127896016Y-58656852D01*
X127769075Y-58851151D01*
X127675842Y-59063699D01*
X127618866Y-59288691D01*
X127618864Y-59288702D01*
X127599700Y-59519993D01*
X127599700Y-59520006D01*
X127618864Y-59751297D01*
X127618866Y-59751308D01*
X127675842Y-59976300D01*
X127769075Y-60188848D01*
X127896016Y-60383147D01*
X127896019Y-60383151D01*
X127896021Y-60383153D01*
X128053216Y-60553913D01*
X128053219Y-60553915D01*
X128053222Y-60553918D01*
X128205122Y-60672147D01*
X128245935Y-60728857D01*
X128249610Y-60798630D01*
X128214978Y-60859313D01*
X128205122Y-60867853D01*
X128053222Y-60986081D01*
X128053219Y-60986084D01*
X128053216Y-60986086D01*
X128053216Y-60986087D01*
X128040452Y-60999953D01*
X127896016Y-61156852D01*
X127769075Y-61351151D01*
X127675842Y-61563699D01*
X127618866Y-61788691D01*
X127618864Y-61788702D01*
X127599700Y-62019993D01*
X127599700Y-62020006D01*
X124000500Y-62020006D01*
X124000500Y-23067763D01*
X125145787Y-23067763D01*
X125175413Y-23337013D01*
X125175415Y-23337024D01*
X125238975Y-23580144D01*
X125243928Y-23599088D01*
X125349870Y-23848390D01*
X125433560Y-23985520D01*
X125490979Y-24079605D01*
X125490986Y-24079615D01*
X125664253Y-24287819D01*
X125664259Y-24287824D01*
X125769240Y-24381887D01*
X125865998Y-24468582D01*
X126091910Y-24618044D01*
X126337176Y-24733020D01*
X126337183Y-24733022D01*
X126337185Y-24733023D01*
X126596557Y-24811057D01*
X126596564Y-24811058D01*
X126596569Y-24811060D01*
X126864561Y-24850500D01*
X126864566Y-24850500D01*
X127067636Y-24850500D01*
X127119133Y-24846730D01*
X127270156Y-24835677D01*
X127382758Y-24810593D01*
X127534546Y-24776782D01*
X127534548Y-24776781D01*
X127534553Y-24776780D01*
X127787558Y-24680014D01*
X128023777Y-24547441D01*
X128238177Y-24381888D01*
X128426186Y-24186881D01*
X128583799Y-23966579D01*
X128682375Y-23774847D01*
X128707649Y-23725690D01*
X128707651Y-23725684D01*
X128707656Y-23725675D01*
X128795118Y-23469305D01*
X128844319Y-23202933D01*
X128854212Y-22932235D01*
X128824586Y-22662982D01*
X128756072Y-22400912D01*
X128650130Y-22151610D01*
X128509018Y-21920390D01*
X128419747Y-21813119D01*
X128335746Y-21712180D01*
X128335740Y-21712175D01*
X128134002Y-21531418D01*
X127908092Y-21381957D01*
X127868865Y-21363568D01*
X127662824Y-21266980D01*
X127662819Y-21266978D01*
X127662814Y-21266976D01*
X127403442Y-21188942D01*
X127403428Y-21188939D01*
X127287791Y-21171921D01*
X127135439Y-21149500D01*
X126932369Y-21149500D01*
X126932364Y-21149500D01*
X126729844Y-21164323D01*
X126729831Y-21164325D01*
X126465453Y-21223217D01*
X126465446Y-21223220D01*
X126212439Y-21319987D01*
X125976226Y-21452557D01*
X125761822Y-21618112D01*
X125573822Y-21813109D01*
X125573816Y-21813116D01*
X125416202Y-22033419D01*
X125416199Y-22033424D01*
X125292350Y-22274309D01*
X125292343Y-22274327D01*
X125204884Y-22530685D01*
X125204881Y-22530699D01*
X125155681Y-22797068D01*
X125155680Y-22797075D01*
X125145787Y-23067763D01*
X124000500Y-23067763D01*
X124000500Y-23001622D01*
X124000585Y-22998376D01*
X124001808Y-22975033D01*
X124007497Y-22866486D01*
X124011334Y-22798169D01*
X124017803Y-22682968D01*
X124018464Y-22676791D01*
X124042611Y-22524331D01*
X124070227Y-22361796D01*
X124071451Y-22356196D01*
X124112425Y-22203279D01*
X124157083Y-22048268D01*
X124158764Y-22043254D01*
X124216127Y-21893815D01*
X124277366Y-21745972D01*
X124279379Y-21741606D01*
X124352511Y-21598078D01*
X124359688Y-21585090D01*
X124429655Y-21458494D01*
X124431867Y-21454808D01*
X124519980Y-21319127D01*
X124556983Y-21266976D01*
X124612154Y-21189220D01*
X124614486Y-21186143D01*
X124715655Y-21061209D01*
X124717537Y-21058998D01*
X124822773Y-20941239D01*
X124825092Y-20938787D01*
X124938787Y-20825092D01*
X124941239Y-20822773D01*
X125058998Y-20717537D01*
X125061209Y-20715655D01*
X125186143Y-20614486D01*
X125189220Y-20612154D01*
X125319127Y-20519980D01*
X125329046Y-20513537D01*
X125454808Y-20431867D01*
X125458494Y-20429655D01*
X125598078Y-20352511D01*
X125610063Y-20346403D01*
X125741606Y-20279379D01*
X125745972Y-20277366D01*
X125893815Y-20216127D01*
X126043254Y-20158764D01*
X126048268Y-20157083D01*
X126203279Y-20112425D01*
X126356196Y-20071451D01*
X126361796Y-20070227D01*
X126524284Y-20042618D01*
X126676791Y-20018464D01*
X126682968Y-20017803D01*
X126866566Y-20007493D01*
X126998380Y-20000584D01*
X127001622Y-20000500D01*
X175998378Y-20000500D01*
X176001619Y-20000584D01*
G37*
%TD.AperFunction*%
%TD*%
M02*
